<?xml version="1.0" encoding="utf-8" standalone="no"?>
<!DOCTYPE svg PUBLIC "-//W3C//DTD SVG 1.1//EN" "http://www.w3.org/Graphics/SVG/1.1/DTD/svg11.dtd">
<svg xmlns="http://www.w3.org/2000/svg" xmlns:xl="http://www.w3.org/1999/xlink" version="1.1" viewBox="236 517 481 75" width="481pt" height="75pt" xmlns:dc="http://purl.org/dc/elements/1.1/"><metadata> Produced by OmniGraffle 6.0.5 <dc:date>2014-05-23 09:04Z</dc:date></metadata><defs><linearGradient x1="0" x2="1" id="Gradient" gradientUnits="userSpaceOnUse"><stop offset="0" stop-color="white"/><stop offset="1" stop-color="#efeef1"/></linearGradient><linearGradient id="Obj_Gradient" xl:href="#Gradient" gradientTransform="translate(476.85377 520) rotate(90) scale(70)"/></defs><g stroke="none" stroke-opacity="1" stroke-dasharray="none" fill="none" fill-opacity="1"><title>timeline</title><g><title>Layer 1</title><path d="M 258 520 L 712 520 C 713.65685 520 715 521.34315 715 523 L 715 587 C 715 588.65685 713.65685 590 712 590 L 258 590 C 256.34315 590 255 588.65685 255 587 L 255 566.8541 C 255 565.7178 254.358 564.679 253.34164 564.17082 L 240.36656 557.68328 C 238.88463 556.9423 238.28395 555.1403 239.02492 553.65836 C 239.31521 553.07778 239.78598 552.607 240.36656 552.31672 L 253.34164 545.82918 C 254.358 545.321 255 544.2822 255 543.1459 L 255 523 C 255 521.34315 256.34315 520 258 520 Z" fill="url(#Obj_Gradient)"/><path d="M 258 520 L 712 520 C 713.65685 520 715 521.34315 715 523 L 715 587 C 715 588.65685 713.65685 590 712 590 L 258 590 C 256.34315 590 255 588.65685 255 587 L 255 566.8541 C 255 565.7178 254.358 564.679 253.34164 564.17082 L 240.36656 557.68328 C 238.88463 556.9423 238.28395 555.1403 239.02492 553.65836 C 239.31521 553.07778 239.78598 552.607 240.36656 552.31672 L 253.34164 545.82918 C 254.358 545.321 255 544.2822 255 543.1459 L 255 523 C 255 521.34315 256.34315 520 258 520 Z" stroke="#d2d2d2" stroke-linecap="round" stroke-linejoin="round" stroke-width="1"/></g></g></svg>
