<?xml version="1.0" encoding="utf-8" standalone="no"?>
<!DOCTYPE svg PUBLIC "-//W3C//DTD SVG 1.1//EN" "http://www.w3.org/Graphics/SVG/1.1/DTD/svg11.dtd">
<svg xmlns="http://www.w3.org/2000/svg" xmlns:xl="http://www.w3.org/1999/xlink" version="1.1" viewBox="233 608 484 104" width="484pt" height="104pt" xmlns:dc="http://purl.org/dc/elements/1.1/"><metadata> Produced by OmniGraffle 6.0.5 <dc:date>2014-05-23 09:04Z</dc:date></metadata><defs><linearGradient x1="0" x2="1" id="Gradient" gradientUnits="userSpaceOnUse"><stop offset="0" stop-color="white"/><stop offset="1" stop-color="#efeef1"/></linearGradient><linearGradient id="Obj_Gradient" xl:href="#Gradient" gradientTransform="translate(475 610) rotate(90) scale(100)"/></defs><g stroke="none" stroke-opacity="1" stroke-dasharray="none" fill="none" fill-opacity="1"><title>timeline</title><g><title>Layer 1</title><path d="M 258 610 L 712 610 C 713.65685 610 715 611.34315 715 613 L 715 707 C 715 708.65685 713.65685 710 712 710 L 258 710 C 256.34315 710 255 708.65685 255 707 L 255 656.8541 C 255 655.7178 254.358 654.679 253.34164 654.17082 L 240.36656 647.6833 C 238.88463 646.9423 238.28395 645.1403 239.02492 643.65836 C 239.31521 643.07778 239.78598 642.607 240.36656 642.3167 L 253.34164 635.82918 C 254.358 635.321 255 634.2822 255 633.1459 L 255 613 C 255 611.34315 256.34315 610 258 610 Z" fill="url(#Obj_Gradient)"/><path d="M 258 610 L 712 610 C 713.65685 610 715 611.34315 715 613 L 715 707 C 715 708.65685 713.65685 710 712 710 L 258 710 C 256.34315 710 255 708.65685 255 707 L 255 656.8541 C 255 655.7178 254.358 654.679 253.34164 654.17082 L 240.36656 647.6833 C 238.88463 646.9423 238.28395 645.1403 239.02492 643.65836 C 239.31521 643.07778 239.78598 642.607 240.36656 642.3167 L 253.34164 635.82918 C 254.358 635.321 255 634.2822 255 633.1459 L 255 613 C 255 611.34315 256.34315 610 258 610 Z" stroke="#d2d2d2" stroke-linecap="round" stroke-linejoin="round" stroke-width="1"/></g></g></svg>
