<?xml version="1.0" encoding="utf-8" standalone="no"?>
<!DOCTYPE svg PUBLIC "-//W3C//DTD SVG 1.1//EN" "http://www.w3.org/Graphics/SVG/1.1/DTD/svg11.dtd">
<svg xmlns="http://www.w3.org/2000/svg" xmlns:xl="http://www.w3.org/1999/xlink" version="1.1" viewBox="233 398 484 104" width="484pt" height="104pt" xmlns:dc="http://purl.org/dc/elements/1.1/"><metadata> Produced by OmniGraffle 6.0.5 <dc:date>2014-05-23 09:04Z</dc:date></metadata><defs><linearGradient x1="0" x2="1" id="Gradient" gradientUnits="userSpaceOnUse"><stop offset="0" stop-color="white"/><stop offset="1" stop-color="white"/></linearGradient><linearGradient id="Obj_Gradient" xl:href="#Gradient" gradientTransform="translate(475 400) rotate(90) scale(100)"/></defs><g stroke="none" stroke-opacity="1" stroke-dasharray="none" fill="none" fill-opacity="1"><title>timeline</title><g><title>Layer 1</title><path d="M 258 400 L 712 400 C 713.65685 400 715 401.34315 715 403 L 715 497 C 715 498.65685 713.65685 500 712 500 L 258 500 C 256.34315 500 255 498.65685 255 497 L 255 446.8541 C 255 445.71779 254.358 444.679 253.34164 444.17082 L 240.36656 437.68328 C 238.88463 436.94231 238.28395 435.1403 239.02492 433.65836 C 239.31521 433.07778 239.78598 432.607 240.36656 432.31672 L 253.34164 425.82918 C 254.358 425.321 255 424.28221 255 423.1459 L 255 403 C 255 401.34315 256.34315 400 258 400 Z" fill="url(#Obj_Gradient)"/><path d="M 258 400 L 712 400 C 713.65685 400 715 401.34315 715 403 L 715 497 C 715 498.65685 713.65685 500 712 500 L 258 500 C 256.34315 500 255 498.65685 255 497 L 255 446.8541 C 255 445.71779 254.358 444.679 253.34164 444.17082 L 240.36656 437.68328 C 238.88463 436.94231 238.28395 435.1403 239.02492 433.65836 C 239.31521 433.07778 239.78598 432.607 240.36656 432.31672 L 253.34164 425.82918 C 254.358 425.321 255 424.28221 255 423.1459 L 255 403 C 255 401.34315 256.34315 400 258 400 Z" stroke="#d2d2d2" stroke-linecap="round" stroke-linejoin="round" stroke-width="1" stroke-dasharray="2,2"/></g></g></svg>
