<?xml version="1.0" encoding="utf-8" standalone="no"?>
<!DOCTYPE svg PUBLIC "-//W3C//DTD SVG 1.1//EN" "http://www.w3.org/Graphics/SVG/1.1/DTD/svg11.dtd">
<svg xmlns="http://www.w3.org/2000/svg" xmlns:xl="http://www.w3.org/1999/xlink" version="1.1" viewBox="208 518 481 75" width="481pt" height="75pt" xmlns:dc="http://purl.org/dc/elements/1.1/"><metadata> Produced by OmniGraffle 6.0.5 <dc:date>2014-05-23 09:07Z</dc:date></metadata><defs><linearGradient x1="0" x2="1" id="Gradient" gradientUnits="userSpaceOnUse"><stop offset="0" stop-color="white"/><stop offset="1" stop-color="white"/></linearGradient><linearGradient id="Obj_Gradient" xl:href="#Gradient" gradientTransform="translate(448.14623 520) rotate(90) scale(70)"/></defs><g stroke="none" stroke-opacity="1" stroke-dasharray="none" fill="none" fill-opacity="1"><title>timeline</title><g><title>Layer 1</title><path d="M 229.29245 520 L 683.29245 520 C 684.9493 520 686.29245 521.34315 686.29245 523 L 686.29245 587 C 686.29245 588.65685 684.9493 590 683.29245 590 C 683.29245 590 683.29245 590 683.29245 590 L 229.29245 590 C 227.6356 590 226.29245 588.65685 226.29245 587 L 226.29245 566.8541 C 226.29245 565.7178 225.65045 564.679 224.6341 564.17082 L 211.65902 557.68328 C 210.17708 556.9423 209.57641 555.1403 210.31738 553.65836 C 210.60767 553.07778 211.07843 552.607 211.65902 552.31672 L 224.6341 545.82918 C 225.65045 545.321 226.29245 544.2822 226.29245 543.1459 L 226.29245 523 C 226.29245 521.34315 227.6356 520 229.29245 520 Z" fill="url(#Obj_Gradient)"/><path d="M 229.29245 520 L 683.29245 520 C 684.9493 520 686.29245 521.34315 686.29245 523 L 686.29245 587 C 686.29245 588.65685 684.9493 590 683.29245 590 C 683.29245 590 683.29245 590 683.29245 590 L 229.29245 590 C 227.6356 590 226.29245 588.65685 226.29245 587 L 226.29245 566.8541 C 226.29245 565.7178 225.65045 564.679 224.6341 564.17082 L 211.65902 557.68328 C 210.17708 556.9423 209.57641 555.1403 210.31738 553.65836 C 210.60767 553.07778 211.07843 552.607 211.65902 552.31672 L 224.6341 545.82918 C 225.65045 545.321 226.29245 544.2822 226.29245 543.1459 L 226.29245 523 C 226.29245 521.34315 227.6356 520 229.29245 520 Z" stroke="#d2d2d2" stroke-linecap="round" stroke-linejoin="round" stroke-width="1" stroke-dasharray="2,2"/></g></g></svg>
