<?xml version="1.0" encoding="utf-8"?>
<!-- Generator: Adobe Illustrator 17.1.0, SVG Export Plug-In . SVG Version: 6.00 Build 0)  -->
<!DOCTYPE svg PUBLIC "-//W3C//DTD SVG 1.1//EN" "http://www.w3.org/Graphics/SVG/1.1/DTD/svg11.dtd">
<svg version="1.1" xmlns="http://www.w3.org/2000/svg" xmlns:xlink="http://www.w3.org/1999/xlink" x="0px" y="0px"
	 viewBox="0 0 288 288" enable-background="new 0 0 288 288" xml:space="preserve">
<g id="HELP">
	<linearGradient id="SVGID_1_" gradientUnits="userSpaceOnUse" x1="144" y1="240" x2="144" y2="51.9335">
		<stop  offset="0" style="stop-color:#626C70"/>
		<stop  offset="1" style="stop-color:#889296"/>
	</linearGradient>
	<circle fill="url(#SVGID_1_)" cx="144" cy="225" r="13.5"/>
	<linearGradient id="SVGID_2_" gradientUnits="userSpaceOnUse" x1="144" y1="240" x2="144" y2="51.9332">
		<stop  offset="0" style="stop-color:#626C70"/>
		<stop  offset="1" style="stop-color:#889296"/>
	</linearGradient>
	<path fill="url(#SVGID_2_)" d="M144,54c-29.8,0-54,24.2-54,54h18c0-19.9,16.1-36,36-36s36,16.1,36,36c0,16-10.5,29.6-25,34.3
		c-0.5,0.2-0.9,0.3-1.4,0.4c-10.7,3.5-18.4,13.4-18.6,25.2c0,0.2,0,0.3,0,0.5s0,0.3,0,0.5V198h18v-4.2v-25.2v-0.5
		c0.1-3.8,2.6-7.1,6.1-8.3c0.3-0.1,0.6-0.2,1-0.3c7.5-2.3,14.3-6.2,20-11.3c11.1-9.9,18-24.3,18-40.2C198,78.2,173.8,54,144,54z"/>
</g>
<g id="LABELS" display="none">
	<rect y="288" display="inline" fill="none" width="288" height="54"/>
	
		<text transform="matrix(1 0 0 1 117.8311 303.0039)" display="inline" fill="#58595B" font-family="'GillSans'" font-size="22" letter-spacing="1">HELP</text>
</g>
<g id="Layer_1_1_">
</g>
</svg>
