<?xml version="1.0" encoding="utf-8"?>
<!-- Generator: Adobe Illustrator 17.1.0, SVG Export Plug-In . SVG Version: 6.00 Build 0)  -->
<!DOCTYPE svg PUBLIC "-//W3C//DTD SVG 1.1//EN" "http://www.w3.org/Graphics/SVG/1.1/DTD/svg11.dtd">
<svg version="1.1" xmlns="http://www.w3.org/2000/svg" xmlns:xlink="http://www.w3.org/1999/xlink" x="0px" y="0px"
	 viewBox="0 0 288 288" enable-background="new 0 0 288 288" xml:space="preserve">
<g id="SAVE_AS_PDF">
	<rect x="90" y="126" fill="#F7941E" width="108" height="18"/>
	<path fill="#F7941E" d="M207,252H81c-19.8,0-27-16.1-27-27V63c0-10.9,7.2-27,27-27h102.7L234,86.3V108h-63V54H81
		c-4.8,0-6.5,1.9-7.5,3.7c-1.1,2.1-1.4,4.6-1.5,5.4v161.8c0,0.8,0.3,3.3,1.5,5.4c1,1.8,2.7,3.7,7.5,3.7h126c4.8,0,6.5-1.9,7.5-3.7
		c1.1-2.1,1.4-4.6,1.5-5.4V126h18v99C234,235.9,226.8,252,207,252z M189,90h23.3L189,66.7V90z"/>
	<path fill="#F7941E" stroke="#414042" stroke-width="18" stroke-miterlimit="10" d="M162,45"/>
	<rect x="90" y="162" fill="#F7941E" width="108" height="18"/>
	<rect x="90" y="198" fill="#F7941E" width="108" height="18"/>
	<rect x="0" y="0" fill="none" width="288" height="288"/>
</g>
<g id="LABELS" display="none">
	<rect x="0" y="288" display="inline" fill="none" width="288" height="54"/>
	
		<text transform="matrix(1 0 0 1 76.4741 303.0034)" display="inline" fill="#58595B" font-family="'GillSans'" font-size="22" letter-spacing="1">SAVE AS PDF</text>
</g>
<g id="Layer_1_1_">
</g>
</svg>
