<?xml version="1.0" encoding="utf-8"?>
<!-- Generator: Adobe Illustrator 17.1.0, SVG Export Plug-In . SVG Version: 6.00 Build 0)  -->
<!DOCTYPE svg PUBLIC "-//W3C//DTD SVG 1.1//EN" "http://www.w3.org/Graphics/SVG/1.1/DTD/svg11.dtd">
<svg version="1.1" xmlns="http://www.w3.org/2000/svg" xmlns:xlink="http://www.w3.org/1999/xlink" x="0px" y="0px"
	 viewBox="0 0 288 288" enable-background="new 0 0 288 288" xml:space="preserve">
<g id="ACCOUNTS">
	<linearGradient id="SVGID_1_" gradientUnits="userSpaceOnUse" x1="234" y1="42.667" x2="234" y2="235.3912">
		<stop  offset="0" style="stop-color:#889296"/>
		<stop  offset="1" style="stop-color:#626C70"/>
	</linearGradient>
	<rect x="180" y="81" fill="url(#SVGID_1_)" width="108" height="18"/>
	<linearGradient id="SVGID_2_" gradientUnits="userSpaceOnUse" x1="234" y1="42.667" x2="234" y2="235.3912">
		<stop  offset="0" style="stop-color:#889296"/>
		<stop  offset="1" style="stop-color:#626C70"/>
	</linearGradient>
	<rect x="180" y="117" fill="url(#SVGID_2_)" width="108" height="18"/>
	<linearGradient id="SVGID_3_" gradientUnits="userSpaceOnUse" x1="234" y1="42.667" x2="234" y2="235.3912">
		<stop  offset="0" style="stop-color:#889296"/>
		<stop  offset="1" style="stop-color:#626C70"/>
	</linearGradient>
	<rect x="180" y="153" fill="url(#SVGID_3_)" width="108" height="18"/>
	<linearGradient id="SVGID_4_" gradientUnits="userSpaceOnUse" x1="234" y1="42.667" x2="234" y2="235.3912">
		<stop  offset="0" style="stop-color:#889296"/>
		<stop  offset="1" style="stop-color:#626C70"/>
	</linearGradient>
	<rect x="180" y="189" fill="url(#SVGID_4_)" width="108" height="18"/>
	<g>
		<linearGradient id="SVGID_5_" gradientUnits="userSpaceOnUse" x1="142.4277" y1="42.6357" x2="142.4277" y2="235.395">
			<stop  offset="0" style="stop-color:#889296"/>
			<stop  offset="1" style="stop-color:#626C70"/>
		</linearGradient>
		<path fill="url(#SVGID_5_)" d="M142.4,210.8l0.1,0.2C142.5,211,142.4,210.9,142.4,210.8z"/>
		<linearGradient id="SVGID_6_" gradientUnits="userSpaceOnUse" x1="19.5723" y1="42.6357" x2="19.5723" y2="235.395">
			<stop  offset="0" style="stop-color:#889296"/>
			<stop  offset="1" style="stop-color:#626C70"/>
		</linearGradient>
		<path fill="url(#SVGID_6_)" d="M19.5,211l0.1-0.2C19.6,210.9,19.5,211,19.5,211z"/>
	</g>
	<g>
		<linearGradient id="SVGID_7_" gradientUnits="userSpaceOnUse" x1="81" y1="42.6671" x2="81" y2="235.3905">
			<stop  offset="0" style="stop-color:#889296"/>
			<stop  offset="1" style="stop-color:#626C70"/>
		</linearGradient>
		<path fill="url(#SVGID_7_)" d="M157.4,201l-22.8-32.4c-4.5,4-9.4,7.5-14.7,10.4l7.8,11l14.6,20.8c0,0.1,0.1,0.1,0.1,0.2
			c0.9,1.4,1.5,3.1,1.5,5c0,5-4,9-9,9h-25.5H52.5H27c-5,0-9-4-9-9c0-1.8,0.6-3.5,1.5-5c0-0.1,0.1-0.1,0.1-0.2L34.3,190l7.8-11
			c-2.6-1.4-5.1-3-7.5-4.7c-0.1-0.1-0.3-0.2-0.4-0.3c-1.1-0.8-2.1-1.5-3.1-2.3c-0.1-0.1-0.3-0.2-0.4-0.3c-1.1-0.8-2.1-1.7-3.1-2.6
			c0,0-0.1-0.1-0.2-0.1L4.6,201l0,0c-2.9,4.3-4.6,9.5-4.6,15c0,3.2,0.5,6.2,1.5,9c3.7,10.5,13.7,18,25.5,18h108
			c11.7,0,21.7-7.5,25.5-18c1-2.8,1.5-5.8,1.5-9C162,210.4,160.3,205.3,157.4,201L157.4,201z"/>
	</g>
	<linearGradient id="SVGID_8_" gradientUnits="userSpaceOnUse" x1="81" y1="42.667" x2="81" y2="235.3903">
		<stop  offset="0" style="stop-color:#889296"/>
		<stop  offset="1" style="stop-color:#626C70"/>
	</linearGradient>
	<path fill="url(#SVGID_8_)" d="M81,171c-34.7,0-63-28.3-63-63s28.3-63,63-63s63,28.3,63,63S115.7,171,81,171z M81,63
		c-24.8,0-45,20.2-45,45s20.2,45,45,45s45-20.2,45-45S105.8,63,81,63z"/>
</g>
<g id="LABELS" display="none">
	<rect y="288" display="inline" fill="none" width="288" height="54"/>
	
		<text transform="matrix(1 0 0 1 27.5259 303.0039)" display="inline" fill="#58595B" font-family="'GillSans'" font-size="22" letter-spacing="1">ACCOUNTS (MOBILE)</text>
</g>
<g id="Layer_1_1_">
</g>
</svg>
