<?xml version="1.0" encoding="utf-8"?>
<!-- Generator: Adobe Illustrator 17.1.0, SVG Export Plug-In . SVG Version: 6.00 Build 0)  -->
<!DOCTYPE svg PUBLIC "-//W3C//DTD SVG 1.1//EN" "http://www.w3.org/Graphics/SVG/1.1/DTD/svg11.dtd">
<svg version="1.1" xmlns="http://www.w3.org/2000/svg" xmlns:xlink="http://www.w3.org/1999/xlink" x="0px" y="0px"
	 viewBox="0 0 288 288" enable-background="new 0 0 288 288" xml:space="preserve">
<g id="grid" display="none">
	<rect x="26.5" y="27.5" display="inline" fill="none" stroke="#E6E6E6" stroke-miterlimit="10" width="234" height="234"/>
	<rect x="71.5" y="72.5" display="inline" fill="none" stroke="#E6E6E6" stroke-miterlimit="10" width="144" height="144"/>
	<circle display="inline" fill="none" stroke="#E6E6E6" stroke-miterlimit="10" cx="144" cy="144" r="117"/>
</g>
<g id="border">
	<rect fill="none" width="288" height="288"/>
</g>
<g id="ico_x5F_expand_x5F_grey" display="none">
	<linearGradient id="SVGID_1_" gradientUnits="userSpaceOnUse" x1="144" y1="72" x2="144" y2="216">
		<stop  offset="0" style="stop-color:#879194"/>
		<stop  offset="1" style="stop-color:#626D70"/>
	</linearGradient>
	<path display="inline" fill="url(#SVGID_1_)" d="M161,136c-5,0-9-4-9-9V72h-18v55c0,3.5,0.7,6.8,1.9,9.9c-3.1-1.2-6.4-1.9-9.9-1.9
		H72v18h54c5,0,9,4,9,9v54h18v-54c0-3.5-0.7-6.8-1.9-9.9c3.1,1.2,6.4,1.9,9.9,1.9h55v-18H161z"/>
</g>
<g id="ico_x5F_expand_x5F_yellow" display="none">
	<path display="inline" fill="#F7941D" d="M161,136c-5,0-9-4-9-9V72h-18v55c0,3.5,0.7,6.8,1.9,9.9c-3.1-1.2-6.4-1.9-9.9-1.9H72v18
		h54c5,0,9,4,9,9v54h18v-54c0-3.5-0.7-6.8-1.9-9.9c3.1,1.2,6.4,1.9,9.9,1.9h55v-18H161z"/>
</g>
<g id="ico_x5F_expand_x5F_white" display="none">
	<path display="inline" fill="#FFFFFF" d="M161,136c-5,0-9-4-9-9V72h-18v55c0,3.5,0.7,6.8,1.9,9.9c-3.1-1.2-6.4-1.9-9.9-1.9H72v18
		h54c5,0,9,4,9,9v54h18v-54c0-3.5-0.7-6.8-1.9-9.9c3.1,1.2,6.4,1.9,9.9,1.9h55v-18H161z"/>
</g>
<g id="ico_x5F_contract_x5F_yellow" display="none">
	<g display="inline">
		<rect x="72" y="135" fill="#F7941D" width="144" height="18"/>
	</g>
</g>
<g id="ico_x5F_contract_x5F_white" display="none">
	<g display="inline">
		<rect x="72" y="135" fill="#FFFFFF" width="144" height="18"/>
	</g>
</g>
<g id="ico_x5F_contract_x5F_grey" display="none">
	<g display="inline">
		<linearGradient id="SVGID_2_" gradientUnits="userSpaceOnUse" x1="144" y1="135" x2="144" y2="153">
			<stop  offset="0" style="stop-color:#879194"/>
			<stop  offset="1" style="stop-color:#626D70"/>
		</linearGradient>
		<rect x="72" y="135" fill="url(#SVGID_2_)" width="144" height="18"/>
	</g>
</g>
<g id="ico_x5F_home_x5F_grey" display="none">
	
		<path display="inline" fill="#D1D3D4" stroke="#939598" stroke-width="18" stroke-linecap="round" stroke-linejoin="round" stroke-miterlimit="10" d="
		M27,135"/>
	<linearGradient id="SVGID_3_" gradientUnits="userSpaceOnUse" x1="144" y1="33.825" x2="144" y2="234">
		<stop  offset="0" style="stop-color:#879194"/>
		<stop  offset="1" style="stop-color:#626D70"/>
	</linearGradient>
	<path display="inline" fill="url(#SVGID_3_)" d="M207,234h-18c-14.9,0-27-12.1-27-27v-36c0-5-4-9-9-9h-18c-5,0-9,4-9,9v36
		c0,14.9-12.1,27-27,27H81c-14.9,0-27-12.1-27-27v-72h18v72c0,5,4,9,9,9h18c5,0,9-4,9-9v-36c0-14.9,12.1-27,27-27h18
		c14.9,0,27,12.1,27,27v36c0,5,4,9,9,9h18c5,0,9-4,9-9v-72h18v72C234,221.9,221.9,234,207,234z M266.8,128.5L163.5,40.8
		c-11-9.3-28.1-9.3-39.1,0L21.2,128.1l11.6,13.7l103.3-87.4c4.2-3.6,11.6-3.6,15.8,0l103.3,87.7L266.8,128.5z"/>
</g>
<g id="ico_x5F_home_x5F_yellow" display="none">
	
		<path display="inline" fill="#D1D3D4" stroke="#939598" stroke-width="18" stroke-linecap="round" stroke-linejoin="round" stroke-miterlimit="10" d="
		M27,135"/>
	<path display="inline" fill="#F7941D" d="M207,234h-18c-14.9,0-27-12.1-27-27v-36c0-5-4-9-9-9h-18c-5,0-9,4-9,9v36
		c0,14.9-12.1,27-27,27H81c-14.9,0-27-12.1-27-27v-72h18v72c0,5,4,9,9,9h18c5,0,9-4,9-9v-36c0-14.9,12.1-27,27-27h18
		c14.9,0,27,12.1,27,27v36c0,5,4,9,9,9h18c5,0,9-4,9-9v-72h18v72C234,221.9,221.9,234,207,234z M266.8,128.5L163.5,40.8
		c-11-9.3-28.1-9.3-39.1,0L21.2,128.1l11.6,13.7l103.3-87.4c4.2-3.6,11.6-3.6,15.8,0l103.3,87.7L266.8,128.5z"/>
</g>
<g id="ico_x5F_group_x5F_white" display="none">
	<path display="inline" fill="#FFFFFF" d="M73.5,204c-0.8-1.2-19.5-29.6-19.5-59c0-29.4,18.7-57.8,19.5-59l15,10L81,91l7.5,5
		C88.3,96.2,72,121.1,72,145c0,24,16.3,48.8,16.5,49L73.5,204z M234,145c0-29.4-18.7-57.8-19.5-59l-15,10c0.2,0.2,16.5,25,16.5,49
		c0,23.9-16.3,48.8-16.5,49l15,10C215.3,202.8,234,174.4,234,145z"/>
</g>
<g id="ico_x5F_group_x5F_grey" display="none">
	<linearGradient id="SVGID_4_" gradientUnits="userSpaceOnUse" x1="144" y1="203.9922" x2="144" y2="86.0078">
		<stop  offset="0" style="stop-color:#626D70"/>
		<stop  offset="1" style="stop-color:#879194"/>
	</linearGradient>
	<path display="inline" fill="url(#SVGID_4_)" d="M73.5,204c-0.8-1.2-19.5-29.6-19.5-59c0-29.4,18.7-57.8,19.5-59l15,10L81,91l7.5,5
		C88.3,96.2,72,121.1,72,145c0,24,16.3,48.8,16.5,49L73.5,204z M234,145c0-29.4-18.7-57.8-19.5-59l-15,10c0.2,0.2,16.5,25,16.5,49
		c0,23.9-16.3,48.8-16.5,49l15,10C215.3,202.8,234,174.4,234,145z"/>
</g>
<g id="ico_x5F_group_x5F_remove_x5F_white" display="none">
	<path display="inline" fill="#FFFFFF" d="M73.5,204c-0.8-1.2-19.5-29.6-19.5-59c0-29.4,18.7-57.8,19.5-59l15,10L81,91l7.5,5
		C88.3,96.2,72,121.1,72,145c0,24,16.3,48.8,16.5,49L73.5,204z M234,145c0-29.4-18.7-57.8-19.5-59l-15,10c0.2,0.2,16.5,25,16.5,49
		c0,23.9-16.3,48.8-16.5,49l15,10C215.3,202.8,234,174.4,234,145z M186.4,114.4l-12.7-12.7L144,131.3l-29.6-29.6l-12.7,12.7
		l29.6,29.6l-29.6,29.6l12.7,12.7l29.6-29.6l29.6,29.6l12.7-12.7L156.7,144L186.4,114.4z"/>
</g>
<g id="ico_x5F_group_x5F_remove_x5F_grey" display="none">
	<linearGradient id="SVGID_5_" gradientUnits="userSpaceOnUse" x1="144" y1="203.9922" x2="144" y2="86.0078">
		<stop  offset="0" style="stop-color:#626D70"/>
		<stop  offset="1" style="stop-color:#879194"/>
	</linearGradient>
	<path display="inline" fill="url(#SVGID_5_)" d="M73.5,204c-0.8-1.2-19.5-29.6-19.5-59c0-29.4,18.7-57.8,19.5-59l15,10L81,91l7.5,5
		C88.3,96.2,72,121.1,72,145c0,24,16.3,48.8,16.5,49L73.5,204z M234,145c0-29.4-18.7-57.8-19.5-59l-15,10c0.2,0.2,16.5,25,16.5,49
		c0,23.9-16.3,48.8-16.5,49l15,10C215.3,202.8,234,174.4,234,145z M186.4,114.4l-12.7-12.7L144,131.3l-29.6-29.6l-12.7,12.7
		l29.6,29.6l-29.6,29.6l12.7,12.7l29.6-29.6l29.6,29.6l12.7-12.7L156.7,144L186.4,114.4z"/>
</g>
<g id="ico_x5F_group_x5F_sort_x5F_up_x5F_white" display="none">
	<path display="inline" fill="#FFFFFF" d="M65.5,204c-0.8-1.2-19.5-29.6-19.5-59c0-29.4,18.7-57.8,19.5-59l15,10L73,91l7.5,5
		C80.3,96.2,64,121.1,64,145c0,24,16.3,48.8,16.5,49L65.5,204z M242,145c0-29.4-18.7-57.8-19.5-59l-15,10c0.2,0.2,16.5,25,16.5,49
		c0,23.9-16.3,48.8-16.5,49l15,10C223.3,202.8,242,174.4,242,145z M167.4,118.8c-5.1-6.9-13-10.8-21.6-10.8s-16.5,3.9-21.6,10.8
		l-39.6,52.8L99,182.4l39.6-52.8c1.7-2.3,4.3-3.6,7.2-3.6c2.9,0,5.5,1.3,7.2,3.6l39.6,52.8l14.4-10.8L167.4,118.8z"/>
</g>
<g id="ico_x5F_group_x5F_sort_x5F_up_x5F_grey" display="none">
	<linearGradient id="SVGID_6_" gradientUnits="userSpaceOnUse" x1="144" y1="203.9922" x2="144" y2="86.0078">
		<stop  offset="0" style="stop-color:#626D70"/>
		<stop  offset="1" style="stop-color:#879194"/>
	</linearGradient>
	<path display="inline" fill="url(#SVGID_6_)" d="M65.5,204c-0.8-1.2-19.5-29.6-19.5-59c0-29.4,18.7-57.8,19.5-59l15,10L73,91l7.5,5
		C80.3,96.2,64,121.1,64,145c0,24,16.3,48.8,16.5,49L65.5,204z M242,145c0-29.4-18.7-57.8-19.5-59l-15,10c0.2,0.2,16.5,25,16.5,49
		c0,23.9-16.3,48.8-16.5,49l15,10C223.3,202.8,242,174.4,242,145z M167.4,118.8c-5.1-6.9-13-10.8-21.6-10.8s-16.5,3.9-21.6,10.8
		l-39.6,52.8L99,182.4l39.6-52.8c1.7-2.3,4.3-3.6,7.2-3.6c2.9,0,5.5,1.3,7.2,3.6l39.6,52.8l14.4-10.8L167.4,118.8z"/>
</g>
<g id="ico_x5F_group_x5F_sort_x5F_down_x5F_white" display="none">
	<path display="inline" fill="#FFFFFF" d="M65.5,204c-0.8-1.2-19.5-29.6-19.5-59c0-29.4,18.7-57.8,19.5-59l15,10L73,91l7.5,5
		C80.3,96.2,64,121.1,64,145c0,24,16.3,48.8,16.5,49L65.5,204z M242,145c0-29.4-18.7-57.8-19.5-59l-15,10c0.2,0.2,16.5,25,16.5,49
		c0,23.9-16.3,48.8-16.5,49l15,10C223.3,202.8,242,174.4,242,145z M122.4,169.2c5.1,6.9,13,10.8,21.6,10.8s16.5-3.9,21.6-10.8
		l39.6-52.8l-14.4-10.8l-39.6,52.8c-1.7,2.3-4.3,3.6-7.2,3.6c-2.9,0-5.5-1.3-7.2-3.6l-39.6-52.8l-14.4,10.8L122.4,169.2z"/>
</g>
<g id="ico_x5F_group_x5F_sort_x5F_down_x5F_grey" display="none">
	<linearGradient id="SVGID_7_" gradientUnits="userSpaceOnUse" x1="144" y1="203.9922" x2="144" y2="86.0078">
		<stop  offset="0" style="stop-color:#626D70"/>
		<stop  offset="1" style="stop-color:#879194"/>
	</linearGradient>
	<path display="inline" fill="url(#SVGID_7_)" d="M65.5,204c-0.8-1.2-19.5-29.6-19.5-59c0-29.4,18.7-57.8,19.5-59l15,10L73,91l7.5,5
		C80.3,96.2,64,121.1,64,145c0,24,16.3,48.8,16.5,49L65.5,204z M242,145c0-29.4-18.7-57.8-19.5-59l-15,10c0.2,0.2,16.5,25,16.5,49
		c0,23.9-16.3,48.8-16.5,49l15,10C223.3,202.8,242,174.4,242,145z M122.4,169.2c5.1,6.9,13,10.8,21.6,10.8s16.5-3.9,21.6-10.8
		l39.6-52.8l-14.4-10.8l-39.6,52.8c-1.7,2.3-4.3,3.6-7.2,3.6c-2.9,0-5.5-1.3-7.2-3.6l-39.6-52.8l-14.4,10.8L122.4,169.2z"/>
</g>
<g id="ico_x5F_group_x5F_expand_x5F_white" display="none">
	<path display="inline" fill="#FFFFFF" d="M73.5,203c-0.8-1.2-19.5-29.6-19.5-59c0-29.4,18.7-57.8,19.5-59l15,10L81,90l7.5,5
		C88.3,95.2,72,120.1,72,144c0,24,16.3,48.8,16.5,49L73.5,203z M234,144c0-29.4-18.7-57.8-19.5-59l-15,10c0.2,0.2,16.5,25,16.5,49
		c0,23.9-16.3,48.8-16.5,49l15,10C215.3,201.8,234,173.4,234,144z M161,136c-5,0-9-4-9-9V99h-18v28c0,3.5,0.7,6.8,1.9,9.9
		c-3.1-1.2-6.4-1.9-9.9-1.9H99v18h27c5,0,9,4,9,9v27h18v-27c0-3.5-0.7-6.8-1.9-9.9c3.1,1.2,6.4,1.9,9.9,1.9h28v-18H161z"/>
</g>
<g id="ico_x5F_group_x5F_expand_x5F_grey" display="none">
	<linearGradient id="SVGID_8_" gradientUnits="userSpaceOnUse" x1="144" y1="202.9922" x2="144" y2="85.0078">
		<stop  offset="0" style="stop-color:#626D70"/>
		<stop  offset="1" style="stop-color:#879194"/>
	</linearGradient>
	<path display="inline" fill="url(#SVGID_8_)" d="M73.5,203c-0.8-1.2-19.5-29.6-19.5-59c0-29.4,18.7-57.8,19.5-59l15,10L81,90l7.5,5
		C88.3,95.2,72,120.1,72,144c0,24,16.3,48.8,16.5,49L73.5,203z M234,144c0-29.4-18.7-57.8-19.5-59l-15,10c0.2,0.2,16.5,25,16.5,49
		c0,23.9-16.3,48.8-16.5,49l15,10C215.3,201.8,234,173.4,234,144z M161,136c-5,0-9-4-9-9V99h-18v28c0,3.5,0.7,6.8,1.9,9.9
		c-3.1-1.2-6.4-1.9-9.9-1.9H99v18h27c5,0,9,4,9,9v27h18v-27c0-3.5-0.7-6.8-1.9-9.9c3.1,1.2,6.4,1.9,9.9,1.9h28v-18H161z"/>
</g>
<g id="ico_x5F_group_x5F_contract_x5F_white" display="none">
	<path display="inline" fill="#FFFFFF" d="M73.5,203c-0.8-1.2-19.5-29.6-19.5-59c0-29.4,18.7-57.8,19.5-59l15,10L81,90l7.5,5
		C88.3,95.2,72,120.1,72,144c0,24,16.3,48.8,16.5,49L73.5,203z M234,144c0-29.4-18.7-57.8-19.5-59l-15,10c0.2,0.2,16.5,25,16.5,49
		c0,23.9-16.3,48.8-16.5,49l15,10C215.3,201.8,234,173.4,234,144z M189,135H99v18h90V135z"/>
</g>
<g id="ico_x5F_group_x5F_contract_x5F_grey" display="none">
	<linearGradient id="SVGID_9_" gradientUnits="userSpaceOnUse" x1="144" y1="202.9922" x2="144" y2="85.0078">
		<stop  offset="0" style="stop-color:#626D70"/>
		<stop  offset="1" style="stop-color:#879194"/>
	</linearGradient>
	<path display="inline" fill="url(#SVGID_9_)" d="M73.5,203c-0.8-1.2-19.5-29.6-19.5-59c0-29.4,18.7-57.8,19.5-59l15,10L81,90l7.5,5
		C88.3,95.2,72,120.1,72,144c0,24,16.3,48.8,16.5,49L73.5,203z M234,144c0-29.4-18.7-57.8-19.5-59l-15,10c0.2,0.2,16.5,25,16.5,49
		c0,23.9-16.3,48.8-16.5,49l15,10C215.3,201.8,234,173.4,234,144z M189,135H99v18h90V135z"/>
</g>
<g id="ico_x5F_group_x5F_expand_x5F_all_x5F_white" display="none">
	<path display="inline" fill="#FFFFFF" d="M73.5,203c-0.8-1.2-19.5-29.6-19.5-59c0-29.4,18.7-57.8,19.5-59l15,10L81,90l7.5,5
		C88.3,95.2,72,120.1,72,144c0,24,16.3,48.8,16.5,49L73.5,203z M234,144c0-29.4-18.7-57.8-19.5-59l-15,10c0.2,0.2,16.5,25,16.5,49
		c0,23.9-16.3,48.8-16.5,49l15,10C215.3,201.8,234,173.4,234,144z M161,136c-5,0-9-4-9-9V99h-18v28c0,3.5,0.7,6.8,1.9,9.9
		c-3.1-1.2-6.4-1.9-9.9-1.9H99v18h27c5,0,9,4,9,9v27h18v-27c0-3.5-0.7-6.8-1.9-9.9c3.1,1.2,6.4,1.9,9.9,1.9h28v-18H161z M52.5,194
		c-0.2-0.2-16.5-25-16.5-49c0-23.9,16.3-48.8,16.5-49L45,91l7.5,5l-15-10C36.7,87.2,18,115.6,18,145c0,29.4,18.7,57.8,19.5,59
		L52.5,194z"/>
</g>
<g id="ico_x5F_group_x5F_expand_x5F_all_x5F_grey" display="none">
	<linearGradient id="SVGID_10_" gradientUnits="userSpaceOnUse" x1="126" y1="203.9922" x2="126" y2="85.0078">
		<stop  offset="0" style="stop-color:#626D70"/>
		<stop  offset="1" style="stop-color:#879194"/>
	</linearGradient>
	<path display="inline" fill="url(#SVGID_10_)" d="M73.5,203c-0.8-1.2-19.5-29.6-19.5-59c0-29.4,18.7-57.8,19.5-59l15,10L81,90
		l7.5,5C88.3,95.2,72,120.1,72,144c0,24,16.3,48.8,16.5,49L73.5,203z M234,144c0-29.4-18.7-57.8-19.5-59l-15,10
		c0.2,0.2,16.5,25,16.5,49c0,23.9-16.3,48.8-16.5,49l15,10C215.3,201.8,234,173.4,234,144z M161,136c-5,0-9-4-9-9V99h-18v28
		c0,3.5,0.7,6.8,1.9,9.9c-3.1-1.2-6.4-1.9-9.9-1.9H99v18h27c5,0,9,4,9,9v27h18v-27c0-3.5-0.7-6.8-1.9-9.9c3.1,1.2,6.4,1.9,9.9,1.9
		h28v-18H161z M52.5,194c-0.2-0.2-16.5-25-16.5-49c0-23.9,16.3-48.8,16.5-49L45,91l7.5,5l-15-10C36.7,87.2,18,115.6,18,145
		c0,29.4,18.7,57.8,19.5,59L52.5,194z"/>
</g>
<g id="ico_x5F_group_x5F_contract_x5F_all_x5F_white" display="none">
	<path display="inline" fill="#FFFFFF" d="M73.5,203c-0.8-1.2-19.5-29.6-19.5-59c0-29.4,18.7-57.8,19.5-59l15,10L81,90l7.5,5
		C88.3,95.2,72,120.1,72,144c0,24,16.3,48.8,16.5,49L73.5,203z M234,144c0-29.4-18.7-57.8-19.5-59l-15,10c0.2,0.2,16.5,25,16.5,49
		c0,23.9-16.3,48.8-16.5,49l15,10C215.3,201.8,234,173.4,234,144z M189,135H99v18h90V135z M52.5,193c-0.2-0.2-16.5-25-16.5-49
		c0-23.9,16.3-48.8,16.5-49L45,90l7.5,5l-15-10C36.7,86.2,18,114.6,18,144c0,29.4,18.7,57.8,19.5,59L52.5,193z"/>
</g>
<g id="ico_x5F_group_x5F_contract_x5F_all_x5F_grey" display="none">
	<linearGradient id="SVGID_11_" gradientUnits="userSpaceOnUse" x1="126" y1="202.9922" x2="126" y2="85.0078">
		<stop  offset="0" style="stop-color:#626D70"/>
		<stop  offset="1" style="stop-color:#879194"/>
	</linearGradient>
	<path display="inline" fill="url(#SVGID_11_)" d="M73.5,203c-0.8-1.2-19.5-29.6-19.5-59c0-29.4,18.7-57.8,19.5-59l15,10L81,90
		l7.5,5C88.3,95.2,72,120.1,72,144c0,24,16.3,48.8,16.5,49L73.5,203z M234,144c0-29.4-18.7-57.8-19.5-59l-15,10
		c0.2,0.2,16.5,25,16.5,49c0,23.9-16.3,48.8-16.5,49l15,10C215.3,201.8,234,173.4,234,144z M189,135H99v18h90V135z M52.5,193
		c-0.2-0.2-16.5-25-16.5-49c0-23.9,16.3-48.8,16.5-49L45,90l7.5,5l-15-10C36.7,86.2,18,114.6,18,144c0,29.4,18.7,57.8,19.5,59
		L52.5,193z"/>
</g>
<g id="ico_x5F_sort_x5F_secondary_x5F_up_x5F_white" display="none">
	<path display="inline" fill="#FFFFFF" d="M122.4,118.8c5.1-6.9,13-10.8,21.6-10.8s16.5,3.9,21.6,10.8l39.6,52.8l-14.4,10.8
		l-39.6-52.8c-1.7-2.3-4.3-3.6-7.2-3.6c-2.9,0-5.5,1.3-7.2,3.6l-39.6,52.8l-14.4-10.8L122.4,118.8z M157.5,171
		c0-7.5-6-13.5-13.5-13.5s-13.5,6-13.5,13.5s6,13.5,13.5,13.5S157.5,178.5,157.5,171z"/>
</g>
<g id="ico_x5F_sort_x5F_secondary_x5F_up_x5F_grey" display="none">
	<linearGradient id="SVGID_12_" gradientUnits="userSpaceOnUse" x1="144" y1="108" x2="144" y2="184.5">
		<stop  offset="0" style="stop-color:#879194"/>
		<stop  offset="1" style="stop-color:#626D70"/>
	</linearGradient>
	<path display="inline" fill="url(#SVGID_12_)" d="M122.4,118.8c5.1-6.9,13-10.8,21.6-10.8s16.5,3.9,21.6,10.8l39.6,52.8l-14.4,10.8
		l-39.6-52.8c-1.7-2.3-4.3-3.6-7.2-3.6c-2.9,0-5.5,1.3-7.2,3.6l-39.6,52.8l-14.4-10.8L122.4,118.8z M157.5,171
		c0-7.5-6-13.5-13.5-13.5s-13.5,6-13.5,13.5s6,13.5,13.5,13.5S157.5,178.5,157.5,171z"/>
</g>
<g id="ico_x5F_sort_x5F_secondary_x5F_down_x5F_white" display="none">
	<path display="inline" fill="#FFFFFF" d="M82.8,116.4l14.4-10.8l39.6,52.8c1.7,2.3,4.3,3.6,7.2,3.6c2.9,0,5.5-1.3,7.2-3.6
		l39.6-52.8l14.4,10.8l-39.6,52.8c-5.1,6.9-13,10.8-21.6,10.8s-16.5-3.9-21.6-10.8L82.8,116.4z M144,103.5c-7.5,0-13.5,6-13.5,13.5
		s6,13.5,13.5,13.5s13.5-6,13.5-13.5S151.5,103.5,144,103.5z"/>
</g>
<g id="ico_x5F_sort_x5F_secondary_x5F_down_x5F_grey" display="none">
	<linearGradient id="SVGID_13_" gradientUnits="userSpaceOnUse" x1="144" y1="103.5" x2="144" y2="180">
		<stop  offset="0" style="stop-color:#879194"/>
		<stop  offset="1" style="stop-color:#626D70"/>
	</linearGradient>
	<path display="inline" fill="url(#SVGID_13_)" d="M82.8,116.4l14.4-10.8l39.6,52.8c1.7,2.3,4.3,3.6,7.2,3.6c2.9,0,5.5-1.3,7.2-3.6
		l39.6-52.8l14.4,10.8l-39.6,52.8c-5.1,6.9-13,10.8-21.6,10.8s-16.5-3.9-21.6-10.8L82.8,116.4z M144,103.5c-7.5,0-13.5,6-13.5,13.5
		s6,13.5,13.5,13.5s13.5-6,13.5-13.5S151.5,103.5,144,103.5z"/>
</g>
<g id="ico_x5F_sort_x5F_primary_x5F_down_x5F_white">
	<g>
		<path fill="#FFFFFF" d="M82.8,116.4l14.4-10.8l39.6,52.8c1.7,2.3,4.3,3.6,7.2,3.6c2.9,0,5.5-1.3,7.2-3.6l39.6-52.8l14.4,10.8
			l-39.6,52.8c-5.1,6.9-13,10.8-21.6,10.8s-16.5-3.9-21.6-10.8L82.8,116.4z"/>
	</g>
</g>
<g id="ico_x5F_sort_x5F_primary_x5F_down_x5F_grey" display="none">
	<g display="inline">
		<linearGradient id="SVGID_14_" gradientUnits="userSpaceOnUse" x1="144" y1="105.6001" x2="144" y2="180">
			<stop  offset="0" style="stop-color:#879194"/>
			<stop  offset="1" style="stop-color:#626D70"/>
		</linearGradient>
		<path fill="url(#SVGID_14_)" d="M82.8,116.4l14.4-10.8l39.6,52.8c1.7,2.3,4.3,3.6,7.2,3.6c2.9,0,5.5-1.3,7.2-3.6l39.6-52.8
			l14.4,10.8l-39.6,52.8c-5.1,6.9-13,10.8-21.6,10.8s-16.5-3.9-21.6-10.8L82.8,116.4z"/>
	</g>
</g>
<g id="ico_x5F_sort_x5F_primary_x5F_up_x5F_white" display="none">
	<g display="inline">
		<path fill="#FFFFFF" d="M205.2,171.6l-14.4,10.8l-39.6-52.8c-1.7-2.3-4.3-3.6-7.2-3.6c-2.9,0-5.5,1.3-7.2,3.6l-39.6,52.8
			l-14.4-10.8l39.6-52.8c5.1-6.9,13-10.8,21.6-10.8s16.5,3.9,21.6,10.8L205.2,171.6z"/>
	</g>
</g>
<g id="ico_x5F_sort_x5F_primary_x5F_up_x5F_grey" display="none">
	<g display="inline">
		<linearGradient id="SVGID_15_" gradientUnits="userSpaceOnUse" x1="144" y1="182.3999" x2="144" y2="108">
			<stop  offset="0" style="stop-color:#626D70"/>
			<stop  offset="1" style="stop-color:#879194"/>
		</linearGradient>
		<path fill="url(#SVGID_15_)" d="M205.2,171.6l-14.4,10.8l-39.6-52.8c-1.7-2.3-4.3-3.6-7.2-3.6c-2.9,0-5.5,1.3-7.2,3.6l-39.6,52.8
			l-14.4-10.8l39.6-52.8c5.1-6.9,13-10.8,21.6-10.8s16.5,3.9,21.6,10.8L205.2,171.6z"/>
	</g>
</g>
<g id="ico_x5F_arrow_x5F_down_x5F_grey" display="none">
	<g display="inline">
		<linearGradient id="SVGID_16_" gradientUnits="userSpaceOnUse" x1="144" y1="105.6001" x2="144" y2="180">
			<stop  offset="0" style="stop-color:#879194"/>
			<stop  offset="1" style="stop-color:#626D70"/>
		</linearGradient>
		<path fill="url(#SVGID_16_)" d="M82.8,116.4l14.4-10.8l39.6,52.8c1.7,2.3,4.3,3.6,7.2,3.6c2.9,0,5.5-1.3,7.2-3.6l39.6-52.8
			l14.4,10.8l-39.6,52.8c-5.1,6.9-13,10.8-21.6,10.8s-16.5-3.9-21.6-10.8L82.8,116.4z"/>
	</g>
</g>
<g id="ico_x5F_arrow_x5F_down_x5F_yellow" display="none">
	<g display="inline">
		<path fill="#F7941D" d="M82.8,116.4l14.4-10.8l39.6,52.8c1.7,2.3,4.3,3.6,7.2,3.6c2.9,0,5.5-1.3,7.2-3.6l39.6-52.8l14.4,10.8
			l-39.6,52.8c-5.1,6.9-13,10.8-21.6,10.8s-16.5-3.9-21.6-10.8L82.8,116.4z"/>
	</g>
</g>
<g id="ico_x5F_arrow_x5F_up_x5F_grey" display="none">
	<g display="inline">
		
			<linearGradient id="SVGID_17_" gradientUnits="userSpaceOnUse" x1="180" y1="144" x2="105.6001" y2="144" gradientTransform="matrix(4.489700e-11 -1 1 4.489700e-11 0 288)">
			<stop  offset="0" style="stop-color:#879194"/>
			<stop  offset="1" style="stop-color:#626D70"/>
		</linearGradient>
		<path fill="url(#SVGID_17_)" d="M205.2,171.6l-14.4,10.8l-39.6-52.8c-1.7-2.3-4.3-3.6-7.2-3.6c-2.9,0-5.5,1.3-7.2,3.6l-39.6,52.8
			l-14.4-10.8l39.6-52.8c5.1-6.9,13-10.8,21.6-10.8s16.5,3.9,21.6,10.8L205.2,171.6z"/>
	</g>
</g>
<g id="ico_x5F_arrow_x5F_up_x5F_yellow" display="none">
	<g display="inline">
		<path fill="#F7941D" d="M205.2,171.6l-14.4,10.8l-39.6-52.8c-1.7-2.3-4.3-3.6-7.2-3.6c-2.9,0-5.5,1.3-7.2,3.6l-39.6,52.8
			l-14.4-10.8l39.6-52.8c5.1-6.9,13-10.8,21.6-10.8s16.5,3.9,21.6,10.8L205.2,171.6z"/>
	</g>
</g>
<g id="ico_x5F_arrow_x5F_right_x5F_grey" display="none">
	<g display="inline">
		<linearGradient id="SVGID_18_" gradientUnits="userSpaceOnUse" x1="142.8" y1="82.7998" x2="142.8" y2="205.2002">
			<stop  offset="0" style="stop-color:#879194"/>
			<stop  offset="1" style="stop-color:#626D70"/>
		</linearGradient>
		<path fill="url(#SVGID_18_)" d="M116.4,205.2l-10.8-14.4l52.8-39.6c2.3-1.7,3.6-4.3,3.6-7.2c0-2.9-1.3-5.5-3.6-7.2l-52.8-39.6
			l10.8-14.4l52.8,39.6c6.9,5.1,10.8,13,10.8,21.6s-3.9,16.5-10.8,21.6L116.4,205.2z"/>
	</g>
</g>
<g id="ico_x5F_arrow_x5F_right_x5F_yellow" display="none">
	<g display="inline">
		<path fill="#F7941D" d="M116.4,205.2l-10.8-14.4l52.8-39.6c2.3-1.7,3.6-4.3,3.6-7.2c0-2.9-1.3-5.5-3.6-7.2l-52.8-39.6l10.8-14.4
			l52.8,39.6c6.9,5.1,10.8,13,10.8,21.6s-3.9,16.5-10.8,21.6L116.4,205.2z"/>
	</g>
</g>
<g id="ico_x5F_arrow_x5F_left_x5F_grey" display="none">
	<g display="inline">
		
			<linearGradient id="SVGID_19_" gradientUnits="userSpaceOnUse" x1="142.8" y1="82.7998" x2="142.8" y2="205.2002" gradientTransform="matrix(-1 0 0 1 288 0)">
			<stop  offset="0" style="stop-color:#879194"/>
			<stop  offset="1" style="stop-color:#626D70"/>
		</linearGradient>
		<path fill="url(#SVGID_19_)" d="M171.6,205.2l10.8-14.4l-52.8-39.6c-2.3-1.7-3.6-4.3-3.6-7.2c0-2.9,1.3-5.5,3.6-7.2l52.8-39.6
			l-10.8-14.4l-52.8,39.6c-6.9,5.1-10.8,13-10.8,21.6s3.9,16.5,10.8,21.6L171.6,205.2z"/>
	</g>
</g>
<g id="ico_x5F_arrow_x5F_left_x5F_yellow" display="none">
	<g display="inline">
		<path fill="#F7941D" d="M171.6,205.2l10.8-14.4l-52.8-39.6c-2.3-1.7-3.6-4.3-3.6-7.2c0-2.9,1.3-5.5,3.6-7.2l52.8-39.6l-10.8-14.4
			l-52.8,39.6c-6.9,5.1-10.8,13-10.8,21.6s3.9,16.5,10.8,21.6L171.6,205.2z"/>
	</g>
</g>
<g id="ico_x5F_timeline_x5F_grey" display="none">
	<linearGradient id="SVGID_20_" gradientUnits="userSpaceOnUse" x1="144" y1="45" x2="144" y2="243">
		<stop  offset="0" style="stop-color:#879194"/>
		<stop  offset="1" style="stop-color:#626D70"/>
	</linearGradient>
	<path display="inline" fill="url(#SVGID_20_)" d="M144,243c-54.6,0-99-44.4-99-99s44.4-99,99-99s99,44.4,99,99S198.6,243,144,243z
		 M144,63c-44.7,0-81,36.3-81,81c0,44.7,36.3,81,81,81c44.7,0,81-36.3,81-81C225,99.3,188.7,63,144,63z M139.1,155.6
		c7.7-3.1,13.7-9.7,15.9-17.7l15.6-54.5l-17.3-4.9L137.8,133c-0.8,2.7-2.7,4.9-5.3,5.9l-36.8,14.7l6.7,16.7L139.1,155.6z"/>
</g>
<g id="ico_x5F_timeline_x5F_yellow" display="none">
	<path display="inline" fill="#F7941D" d="M144,243c-54.6,0-99-44.4-99-99s44.4-99,99-99s99,44.4,99,99S198.6,243,144,243z M144,63
		c-44.7,0-81,36.3-81,81c0,44.7,36.3,81,81,81c44.7,0,81-36.3,81-81C225,99.3,188.7,63,144,63z M139.1,155.6
		c7.7-3.1,13.7-9.7,15.9-17.7l15.6-54.5l-17.3-4.9L137.8,133c-0.8,2.7-2.7,4.9-5.3,5.9l-36.8,14.7l6.7,16.7L139.1,155.6z"/>
</g>
<g id="ico_x5F_settings_x5F_grey" display="none">
	<linearGradient id="SVGID_21_" gradientUnits="userSpaceOnUse" x1="144" y1="55" x2="144" y2="235">
		<stop  offset="0" style="stop-color:#879194"/>
		<stop  offset="1" style="stop-color:#626D70"/>
	</linearGradient>
	<path display="inline" fill="url(#SVGID_21_)" d="M225,82c0,5-4,9-9,9h-91v18h-18V91H72c-5,0-9-4-9-9s4-9,9-9h35V55h18v18h91
		C221,73,225,77,225,82z M216,136h-28v-18h-18v18H72c-5,0-9,4-9,9s4,9,9,9h98v18h18v-18h28c5,0,9-4,9-9S221,136,216,136z M216,199
		h-73v-18h-18v18H72c-5,0-9,4-9,9s4,9,9,9h53v18h18v-18h73c5,0,9-4,9-9S221,199,216,199z"/>
</g>
<g id="ico_x5F_settings_x5F_yellow" display="none">
	<path display="inline" fill="#F7941D" d="M225,82c0,5-4,9-9,9h-91v18h-18V91H72c-5,0-9-4-9-9s4-9,9-9h35V55h18v18h91
		C221,73,225,77,225,82z M216,136h-28v-18h-18v18H72c-5,0-9,4-9,9s4,9,9,9h98v18h18v-18h28c5,0,9-4,9-9S221,136,216,136z M216,199
		h-73v-18h-18v18H72c-5,0-9,4-9,9s4,9,9,9h53v18h18v-18h73c5,0,9-4,9-9S221,199,216,199z"/>
</g>
<g id="ico_x5F_communication_x5F_grey" display="none">
	<linearGradient id="SVGID_22_" gradientUnits="userSpaceOnUse" x1="127.4133" y1="41.0033" x2="127.4133" y2="243">
		<stop  offset="0" style="stop-color:#879194"/>
		<stop  offset="1" style="stop-color:#626D70"/>
	</linearGradient>
	<path display="inline" fill="url(#SVGID_22_)" d="M182.8,243H143c-8.9,0-17.1-4.3-22.2-11.6c-5-7.3-6.2-16.6-3.1-24.9l15.4-41.1
		c2.4-6.4,7.1-11.6,13.2-14.7l10.5-5.3c3.8-1.9,7.9-2.9,12.1-2.9c12,0,22.4,7.7,25.9,19.3l13.9,46.3c2.5,8.3,0.9,17-4.2,23.9
		C199.3,239,191.4,243,182.8,243z M168.9,160.7c-1.4,0-2.7,0.3-4,1l-10.5,5.3c-2,1-3.6,2.8-4.4,4.9l-15.4,41.1
		c-1.1,2.8-0.7,5.8,1,8.3s4.4,3.9,7.4,3.9h39.8c2.9,0,5.5-1.3,7.2-3.6c1.7-2.3,2.2-5.2,1.4-8l-13.9-46.3
		C176.2,162.6,172.2,160.7,168.9,160.7z M99,72 M129.3,97.4c4.4-2.4,6-7.8,3.7-12.2l-18-33.5c-2.4-4.4-7.8-6-12.2-3.7
		c-4.4,2.4-6,7.8-3.7,12.2l18,33.5c1.6,3,4.7,4.7,7.9,4.7C126.4,98.5,127.9,98.1,129.3,97.4z M204.3,46c-2.3-4.4-7.7-6.3-12.1-4
		l-48.8,24.9l8.5,15.8l28.3-14.4c-8.3,20.5-19.5,38.6-39.9,49.5l-0.1,0c-20.8,9.6-41,8.1-62.2,2.6l25.8-13.2l-8.5-15.9l-45.3,23.1
		c-4.4,2.3-6.2,7.7-3.9,12.1c0.8,1.6,2,2.8,3.5,3.7l-0.1,0.2c16.4,5.5,36.6,12.4,58.5,12.4c12.9,0,26.3-2.4,40-8.7l0.8-0.3
		c35.9-19.2,48.1-56.9,56.2-80.9h0C205.5,51,205.4,48.2,204.3,46z"/>
</g>
<g id="ico_x5F_communication_x5F_yellow" display="none">
	<path display="inline" fill="#F7941D" d="M182.8,243H143c-8.9,0-17.1-4.3-22.2-11.6c-5-7.3-6.2-16.6-3.1-24.9l15.4-41.1
		c2.4-6.4,7.1-11.6,13.2-14.7l10.5-5.3c3.8-1.9,7.9-2.9,12.1-2.9c12,0,22.4,7.7,25.9,19.3l13.9,46.3c2.5,8.3,0.9,17-4.2,23.9
		C199.3,239,191.4,243,182.8,243z M168.9,160.7c-1.4,0-2.7,0.3-4,1l-10.5,5.3c-2,1-3.6,2.8-4.4,4.9l-15.4,41.1
		c-1.1,2.8-0.7,5.8,1,8.3s4.4,3.9,7.4,3.9h39.8c2.9,0,5.5-1.3,7.2-3.6c1.7-2.3,2.2-5.2,1.4-8l-13.9-46.3
		C176.2,162.6,172.2,160.7,168.9,160.7z M99,72 M129.3,97.4c4.4-2.4,6-7.8,3.7-12.2l-18-33.5c-2.4-4.4-7.8-6-12.2-3.7
		c-4.4,2.4-6,7.8-3.7,12.2l18,33.5c1.6,3,4.7,4.7,7.9,4.7C126.4,98.5,127.9,98.1,129.3,97.4z M204.3,46c-2.3-4.4-7.7-6.3-12.1-4
		l-48.8,24.9l8.5,15.8l28.3-14.4c-8.3,20.5-19.5,38.6-39.9,49.5l-0.1,0c-20.8,9.6-41,8.1-62.2,2.6l25.8-13.2l-8.5-15.9l-45.3,23.1
		c-4.4,2.3-6.2,7.7-3.9,12.1c0.8,1.6,2,2.8,3.5,3.7l-0.1,0.2c16.4,5.5,36.6,12.4,58.5,12.4c12.9,0,26.3-2.4,40-8.7l0.8-0.3
		c35.9-19.2,48.1-56.9,56.2-80.9h0C205.5,51,205.4,48.2,204.3,46z"/>
</g>
<g id="ico_x5F_timeline_x5F_today_x5F_yellow" display="none">
	<g display="inline">
		<path fill="#F7941D" d="M144,198c-29.8,0-54-24.2-54-54c0-29.8,24.2-54,54-54c29.8,0,54,24.2,54,54C198,173.8,173.8,198,144,198z
			 M144,108c-19.9,0-36,16.1-36,36s16.1,36,36,36s36-16.1,36-36S163.9,108,144,108z"/>
	</g>
</g>
<g id="ico_x5F_checkmark_x5F_yellow" display="none">
	<g display="inline">
		<path fill="#F7941D" d="M124.2,206.8c-7.1,0-14-2.8-19.1-7.9l-39.5-39.5c-3.5-3.5-3.5-9.2,0-12.7c3.5-3.5,9.2-3.5,12.7,0
			l39.5,39.5c1.9,1.9,4.3,2.8,6.9,2.6c2.6-0.2,4.9-1.4,6.6-3.5l77.5-100.8c3-3.9,8.7-4.7,12.6-1.6c3.9,3,4.7,8.7,1.6,12.6
			l-77.5,100.8c-4.7,6.2-11.9,10-19.7,10.5C125.4,206.8,124.8,206.8,124.2,206.8z"/>
	</g>
</g>
<g id="ico_x5F_checkmark_x5F_grey" display="none">
	<g display="inline">
		<linearGradient id="SVGID_23_" gradientUnits="userSpaceOnUse" x1="144.0001" y1="81.0003" x2="144.0001" y2="206.7764">
			<stop  offset="0" style="stop-color:#879194"/>
			<stop  offset="1" style="stop-color:#626D70"/>
		</linearGradient>
		<path fill="url(#SVGID_23_)" d="M124.2,206.8c-7.1,0-14-2.8-19.1-7.9l-39.5-39.5c-3.5-3.5-3.5-9.2,0-12.7c3.5-3.5,9.2-3.5,12.7,0
			l39.5,39.5c1.9,1.9,4.3,2.8,6.9,2.6c2.6-0.2,4.9-1.4,6.6-3.5l77.5-100.8c3-3.9,8.7-4.7,12.6-1.6c3.9,3,4.7,8.7,1.6,12.6
			l-77.5,100.8c-4.7,6.2-11.9,10-19.7,10.5C125.4,206.8,124.8,206.8,124.2,206.8z"/>
	</g>
</g>
<g id="ico_x5F_datepicker_x5F_grey" display="none">
	<linearGradient id="SVGID_24_" gradientUnits="userSpaceOnUse" x1="144" y1="45" x2="144" y2="243">
		<stop  offset="0" style="stop-color:#879194"/>
		<stop  offset="1" style="stop-color:#626D70"/>
	</linearGradient>
	<path display="inline" fill="url(#SVGID_24_)" d="M225,243H63c-14.9,0-27-12.1-27-27V90c0-14.9,12.1-27,27-27h9v18h-9c-5,0-9,4-9,9
		v126c0,5,4,9,9,9h162c5,0,9-4,9-9V90c0-5-4-9-9-9h-9V63h9c14.9,0,27,12.1,27,27v126C252,230.9,239.9,243,225,243z M189,45
		c-5,0-9,4-9,9v9h-27v-9c0-5-4-9-9-9s-9,4-9,9v9h-27v-9c0-5-4-9-9-9s-9,4-9,9v36c0,5,4,9,9,9s9-4,9-9v-9h27v9c0,5,4,9,9,9s9-4,9-9
		v-9h27v9c0,5,4,9,9,9s9-4,9-9V54C198,49,194,45,189,45z M108,126c0-5-4-9-9-9H81c-5,0-9,4-9,9s4,9,9,9h18C104,135,108,131,108,126z
		 M108,162c0-5-4-9-9-9H81c-5,0-9,4-9,9s4,9,9,9h18C104,171,108,167,108,162z M108,198c0-5-4-9-9-9H81c-5,0-9,4-9,9s4,9,9,9h18
		C104,207,108,203,108,198z M216,126c0-5-4-9-9-9h-18c-5,0-9,4-9,9s4,9,9,9h18C212,135,216,131,216,126z M216,162c0-5-4-9-9-9h-18
		c-5,0-9,4-9,9s4,9,9,9h18C212,171,216,167,216,162z M216,198c0-5-4-9-9-9h-18c-5,0-9,4-9,9s4,9,9,9h18C212,207,216,203,216,198z
		 M162,126c0-5-4-9-9-9h-18c-5,0-9,4-9,9s4,9,9,9h18C158,135,162,131,162,126z M162,162c0-5-4-9-9-9h-18c-5,0-9,4-9,9s4,9,9,9h18
		C158,171,162,167,162,162z M162,198c0-5-4-9-9-9h-18c-5,0-9,4-9,9s4,9,9,9h18C158,207,162,203,162,198z"/>
</g>
<g id="ico_x5F_datepicker_x5F_yellow" display="none">
	<path display="inline" fill="#F7941D" d="M225,243H63c-14.9,0-27-12.1-27-27V90c0-14.9,12.1-27,27-27h9v18h-9c-5,0-9,4-9,9v126
		c0,5,4,9,9,9h162c5,0,9-4,9-9V90c0-5-4-9-9-9h-9V63h9c14.9,0,27,12.1,27,27v126C252,230.9,239.9,243,225,243z M189,45c-5,0-9,4-9,9
		v9h-27v-9c0-5-4-9-9-9s-9,4-9,9v9h-27v-9c0-5-4-9-9-9s-9,4-9,9v36c0,5,4,9,9,9s9-4,9-9v-9h27v9c0,5,4,9,9,9s9-4,9-9v-9h27v9
		c0,5,4,9,9,9s9-4,9-9V54C198,49,194,45,189,45z M108,126c0-5-4-9-9-9H81c-5,0-9,4-9,9s4,9,9,9h18C104,135,108,131,108,126z
		 M108,162c0-5-4-9-9-9H81c-5,0-9,4-9,9s4,9,9,9h18C104,171,108,167,108,162z M108,198c0-5-4-9-9-9H81c-5,0-9,4-9,9s4,9,9,9h18
		C104,207,108,203,108,198z M216,126c0-5-4-9-9-9h-18c-5,0-9,4-9,9s4,9,9,9h18C212,135,216,131,216,126z M216,162c0-5-4-9-9-9h-18
		c-5,0-9,4-9,9s4,9,9,9h18C212,171,216,167,216,162z M216,198c0-5-4-9-9-9h-18c-5,0-9,4-9,9s4,9,9,9h18C212,207,216,203,216,198z
		 M162,126c0-5-4-9-9-9h-18c-5,0-9,4-9,9s4,9,9,9h18C158,135,162,131,162,126z M162,162c0-5-4-9-9-9h-18c-5,0-9,4-9,9s4,9,9,9h18
		C158,171,162,167,162,162z M162,198c0-5-4-9-9-9h-18c-5,0-9,4-9,9s4,9,9,9h18C158,207,162,203,162,198z"/>
</g>
<g id="ico_x5F_close_x5F_grey" display="none">
	<linearGradient id="SVGID_25_" gradientUnits="userSpaceOnUse" x1="144.0002" y1="65.6362" x2="144.0002" y2="222.3643">
		<stop  offset="0" style="stop-color:#879194"/>
		<stop  offset="1" style="stop-color:#626D70"/>
	</linearGradient>
	<polygon display="inline" fill="url(#SVGID_25_)" points="222.4,78.4 209.6,65.6 144,131.3 78.4,65.6 65.6,78.4 131.3,144 
		65.6,209.6 78.4,222.4 144,156.7 209.6,222.4 222.4,209.6 156.7,144 	"/>
</g>
<g id="ico_x5F_close_x5F_yellow" display="none">
	<polygon display="inline" fill="#F7941D" points="222.4,78.4 209.6,65.6 144,131.3 78.4,65.6 65.6,78.4 131.3,144 65.6,209.6 
		78.4,222.4 144,156.7 209.6,222.4 222.4,209.6 156.7,144 	"/>
</g>
<g id="ico_x5F_info_x5F_grey" display="none">
	<linearGradient id="SVGID_26_" gradientUnits="userSpaceOnUse" x1="144" y1="45" x2="144" y2="243">
		<stop  offset="0" style="stop-color:#879194"/>
		<stop  offset="1" style="stop-color:#626D70"/>
	</linearGradient>
	
		<circle display="inline" fill="none" stroke="url(#SVGID_26_)" stroke-width="18" stroke-miterlimit="10" cx="144" cy="144" r="90"/>
	<g display="inline">
		<linearGradient id="SVGID_27_" gradientUnits="userSpaceOnUse" x1="147" y1="198" x2="147" y2="91.8281">
			<stop  offset="0" style="stop-color:#626D70"/>
			<stop  offset="1" style="stop-color:#879194"/>
		</linearGradient>
		<path fill="url(#SVGID_27_)" d="M133.6,162v-5.2c0-4.5,1-8.4,2.9-11.7c1.9-3.3,5.4-6.9,10.5-10.6c4.9-3.5,8.2-6.4,9.7-8.6
			c1.6-2.2,2.4-4.7,2.4-7.4c0-3-1.1-5.4-3.4-7c-2.2-1.6-5.4-2.4-9.4-2.4c-7,0-15,2.3-24,6.9l-7.7-15.4c10.5-5.9,21.5-8.8,33.3-8.8
			c9.7,0,17.3,2.3,23,7s8.5,10.8,8.5,18.6c0,5.2-1.2,9.6-3.5,13.4c-2.3,3.8-6.8,8-13.4,12.7c-4.5,3.3-7.3,5.9-8.5,7.6
			c-1.2,1.7-1.8,4-1.8,6.8v4.2H133.6z M131.3,186c0-3.9,1.1-6.9,3.2-8.9c2.1-2,5.2-3,9.2-3c3.9,0,6.9,1,9,3.1c2.1,2.1,3.2,5,3.2,8.9
			c0,3.7-1.1,6.6-3.2,8.8c-2.2,2.1-5.2,3.2-9,3.2c-3.9,0-7-1-9.1-3.1C132.4,192.8,131.3,189.8,131.3,186z"/>
	</g>
</g>
<g id="ico_x5F_clear_x5F_grey" display="none">
	<linearGradient id="SVGID_28_" gradientUnits="userSpaceOnUse" x1="144" y1="244" x2="144" y2="46">
		<stop  offset="0" style="stop-color:#626D70"/>
		<stop  offset="1" style="stop-color:#879194"/>
	</linearGradient>
	<path display="inline" fill="url(#SVGID_28_)" d="M144,244c-54.6,0-99-44.4-99-99s44.4-99,99-99s99,44.4,99,99S198.6,244,144,244z
		 M144,64c-44.7,0-81,36.3-81,81c0,44.7,36.3,81,81,81c44.7,0,81-36.3,81-81C225,100.3,188.7,64,144,64z M186.4,114.4l-12.7-12.7
		L144,131.3l-29.6-29.6l-12.7,12.7l29.6,29.6l-29.6,29.6l12.7,12.7l29.6-29.6l29.6,29.6l12.7-12.7L156.7,144L186.4,114.4z"/>
</g>
<g id="ico_x5F_clear_x5F_red" display="none">
	<path display="inline" fill="#E74B2C" d="M144,244c-54.6,0-99-44.4-99-99s44.4-99,99-99s99,44.4,99,99S198.6,244,144,244z M144,64
		c-44.7,0-81,36.3-81,81c0,44.7,36.3,81,81,81c44.7,0,81-36.3,81-81C225,100.3,188.7,64,144,64z M186.4,114.4l-12.7-12.7L144,131.3
		l-29.6-29.6l-12.7,12.7l29.6,29.6l-29.6,29.6l12.7,12.7l29.6-29.6l29.6,29.6l12.7-12.7L156.7,144L186.4,114.4z"/>
</g>
<g id="ico_x5F_search_x5F_grey" display="none">
	<linearGradient id="SVGID_29_" gradientUnits="userSpaceOnUse" x1="144" y1="58.25" x2="144" y2="229.75">
		<stop  offset="0" style="stop-color:#879194"/>
		<stop  offset="1" style="stop-color:#626D70"/>
	</linearGradient>
	<path display="inline" fill="url(#SVGID_29_)" d="M166.8,184.2c-34.7,0-63-28.3-63-63s28.3-63,63-63s63,28.3,63,63
		S201.5,184.2,166.8,184.2z M166.8,76.2c-24.8,0-45,20.2-45,45c0,24.8,20.2,45,45,45s45-20.2,45-45
		C211.8,96.4,191.6,76.2,166.8,76.2z M103.5,171.8l-42.6,42.6c-3.5,3.5-3.5,9.2,0,12.7c1.8,1.8,4.1,2.6,6.4,2.6s4.6-0.9,6.4-2.6
		l42.6-42.6C111.5,180.7,107.3,176.5,103.5,171.8z"/>
</g>
<g id="ico_x5F_warning_x5F_yellow_1_" display="none">
	<path display="inline" fill="#F7941D" d="M131.6,196.9c0-3.9,1.1-6.9,3.2-8.9c2.1-2,5.2-3,9.2-3c3.9,0,6.9,1,9,3.1
		c2.1,2.1,3.2,5,3.2,8.9c0,3.7-1.1,6.6-3.2,8.8c-2.2,2.1-5.2,3.2-9,3.2c-3.9,0-7-1-9.1-3.1C132.7,203.7,131.6,200.7,131.6,196.9z
		 M152.6,172.9h-17.2l-3.6-68.7h24.3L152.6,172.9z M227,243H61c-12.7,0-22.9-5-27.9-13.7c-5-8.7-4.2-20,2.1-31l83-143.7
		c6.4-11,15.8-17.4,25.8-17.4c10,0,19.4,6.3,25.8,17.4l83,143.7c6.4,11,7.1,22.3,2.1,31C249.9,238,239.7,243,227,243z M144,55.2
		c-3.4,0-7.1,3-10.2,8.4l-83,143.7c-3.1,5.3-3.8,10.1-2.1,13S54.9,225,61,225H227c6.1,0,10.6-1.7,12.3-4.7c1.7-3,0.9-7.7-2.1-13
		l-83-143.7C151.1,58.3,147.4,55.2,144,55.2z"/>
</g>
<g id="ico_x5F_error_x5F_red" display="none">
	<path display="inline" fill="#E74B2C" d="M131.6,196.9c0-3.9,1.1-6.9,3.2-8.9c2.1-2,5.2-3,9.2-3c3.9,0,6.9,1,9,3.1
		c2.1,2.1,3.2,5,3.2,8.9c0,3.7-1.1,6.6-3.2,8.8c-2.2,2.1-5.2,3.2-9,3.2c-3.9,0-7-1-9.1-3.1C132.7,203.7,131.6,200.7,131.6,196.9z
		 M152.6,172.9h-17.2l-3.6-68.7h24.3L152.6,172.9z M227,243H61c-12.7,0-22.9-5-27.9-13.7c-5-8.7-4.2-20,2.1-31l83-143.7
		c6.4-11,15.8-17.4,25.8-17.4c10,0,19.4,6.3,25.8,17.4l83,143.7c6.4,11,7.1,22.3,2.1,31C249.9,238,239.7,243,227,243z M144,55.2
		c-3.4,0-7.1,3-10.2,8.4l-83,143.7c-3.1,5.3-3.8,10.1-2.1,13S54.9,225,61,225H227c6.1,0,10.6-1.7,12.3-4.7c1.7-3,0.9-7.7-2.1-13
		l-83-143.7C151.1,58.3,147.4,55.2,144,55.2z"/>
</g>
</svg>
