<?xml version="1.0" encoding="utf-8"?>
<!-- Generator: Adobe Illustrator 17.1.0, SVG Export Plug-In . SVG Version: 6.00 Build 0)  -->
<!DOCTYPE svg PUBLIC "-//W3C//DTD SVG 1.1//EN" "http://www.w3.org/Graphics/SVG/1.1/DTD/svg11.dtd">
<svg version="1.1" xmlns="http://www.w3.org/2000/svg" xmlns:xlink="http://www.w3.org/1999/xlink" x="0px" y="0px"
	 viewBox="0 0 288 288" enable-background="new 0 0 288 288" xml:space="preserve">
<g id="DELETE">
	<g>
		<linearGradient id="SVGID_1_" gradientUnits="userSpaceOnUse" x1="144" y1="62.5" x2="144" y2="216.8925">
			<stop  offset="0" style="stop-color:#889296"/>
			<stop  offset="1" style="stop-color:#626C70"/>
		</linearGradient>
		<path fill="url(#SVGID_1_)" d="M189,188.9c0,0.8-0.3,3.3-1.5,5.4c-1,1.8-2.7,3.7-7.5,3.7h-72c-4.8,0-6.5-1.9-7.5-3.7
			c-1.1-2.1-1.4-4.6-1.5-5.4V108H81v81c0,10.9,7.2,27,27,27h72c19.8,0,27-16.1,27-27v-81h-18V188.9z"/>
		<linearGradient id="SVGID_2_" gradientUnits="userSpaceOnUse" x1="162" y1="61.8681" x2="162" y2="218.4049">
			<stop  offset="0" style="stop-color:#889296"/>
			<stop  offset="1" style="stop-color:#626C70"/>
		</linearGradient>
		<rect x="153" y="108" fill="url(#SVGID_2_)" width="18" height="73"/>
		<linearGradient id="SVGID_3_" gradientUnits="userSpaceOnUse" x1="126" y1="61.8681" x2="126" y2="218.4049">
			<stop  offset="0" style="stop-color:#889296"/>
			<stop  offset="1" style="stop-color:#626C70"/>
		</linearGradient>
		<rect x="117" y="108" fill="url(#SVGID_3_)" width="18" height="73"/>
		<linearGradient id="SVGID_4_" gradientUnits="userSpaceOnUse" x1="144" y1="62.5" x2="144" y2="216.8925">
			<stop  offset="0" style="stop-color:#889296"/>
			<stop  offset="1" style="stop-color:#626C70"/>
		</linearGradient>
		<polygon fill="url(#SVGID_4_)" points="153,72 153,63 135,63 135,72 72,72 72,90 216,90 216,72 		"/>
	</g>
</g>
<g id="LABELS" display="none">
	<rect y="288" display="inline" fill="none" width="288" height="54"/>
	
		<text transform="matrix(1 0 0 1 104.4634 303.0039)" display="inline" fill="#58595B" font-family="'GillSans'" font-size="22" letter-spacing="1">DELETE</text>
</g>
<g id="Layer_1_1_">
</g>
</svg>
