<?xml version="1.0" encoding="utf-8"?>
<!-- Generator: Adobe Illustrator 17.1.0, SVG Export Plug-In . SVG Version: 6.00 Build 0)  -->
<!DOCTYPE svg PUBLIC "-//W3C//DTD SVG 1.1//EN" "http://www.w3.org/Graphics/SVG/1.1/DTD/svg11.dtd">
<svg version="1.1" xmlns="http://www.w3.org/2000/svg" xmlns:xlink="http://www.w3.org/1999/xlink" x="0px" y="0px"
	 viewBox="0 0 288 288" enable-background="new 0 0 288 288" xml:space="preserve">
<g id="OPEN_MESSAGE">
	<g>
		<linearGradient id="SVGID_1_" gradientUnits="userSpaceOnUse" x1="49.2505" y1="239.9349" x2="49.2505" y2="34.8416">
			<stop  offset="0" style="stop-color:#626C70"/>
			<stop  offset="1" style="stop-color:#889296"/>
		</linearGradient>
		<path fill="url(#SVGID_1_)" d="M49.2,91l0.2-0.1C49.3,90.9,49.2,90.9,49.2,91z"/>
		<linearGradient id="SVGID_2_" gradientUnits="userSpaceOnUse" x1="41.2744" y1="240.0144" x2="41.2744" y2="34.8048">
			<stop  offset="0" style="stop-color:#626C70"/>
			<stop  offset="1" style="stop-color:#889296"/>
		</linearGradient>
		<path fill="url(#SVGID_2_)" d="M41.7,129.9l-0.8-0.4C41.1,129.6,41.4,129.8,41.7,129.9z"/>
		<linearGradient id="SVGID_3_" gradientUnits="userSpaceOnUse" x1="246.7256" y1="240.0144" x2="246.7256" y2="34.8048">
			<stop  offset="0" style="stop-color:#626C70"/>
			<stop  offset="1" style="stop-color:#889296"/>
		</linearGradient>
		<path fill="url(#SVGID_3_)" d="M247.1,129.5l-0.8,0.4C246.6,129.8,246.9,129.6,247.1,129.5z"/>
		<linearGradient id="SVGID_4_" gradientUnits="userSpaceOnUse" x1="238.7495" y1="239.9349" x2="238.7495" y2="34.8416">
			<stop  offset="0" style="stop-color:#626C70"/>
			<stop  offset="1" style="stop-color:#889296"/>
		</linearGradient>
		<path fill="url(#SVGID_4_)" d="M238.7,90.9l0.2,0.1C238.8,90.9,238.7,90.9,238.7,90.9z"/>
	</g>
	<linearGradient id="SVGID_5_" gradientUnits="userSpaceOnUse" x1="144" y1="240" x2="144" y2="34.8168">
		<stop  offset="0" style="stop-color:#626C70"/>
		<stop  offset="1" style="stop-color:#889296"/>
	</linearGradient>
	<path fill="url(#SVGID_5_)" d="M243,151.7v64.2c0,0.8-0.3,3.3-1.5,5.4c-1,1.8-2.7,3.7-7.5,3.7H54c-4.8,0-6.5-1.9-7.5-3.7
		c-1.1-2.1-1.4-4.6-1.5-5.4v-64.2l-18-9V216c0,10.9,7.2,27,27,27h180c19.8,0,27-16.1,27-27v-73.3L243,151.7z"/>
	<g>
		<linearGradient id="SVGID_6_" gradientUnits="userSpaceOnUse" x1="241.1714" y1="239.9862" x2="241.1714" y2="34.8227">
			<stop  offset="0" style="stop-color:#626C70"/>
			<stop  offset="1" style="stop-color:#889296"/>
		</linearGradient>
		<path fill="url(#SVGID_6_)" d="M241.1,93c0.1,0.1,0.1,0.2,0.2,0.3C241.2,93.2,241.1,93.1,241.1,93z"/>
		<linearGradient id="SVGID_7_" gradientUnits="userSpaceOnUse" x1="240.9165" y1="239.9768" x2="240.9165" y2="34.8263">
			<stop  offset="0" style="stop-color:#626C70"/>
			<stop  offset="1" style="stop-color:#889296"/>
		</linearGradient>
		<path fill="url(#SVGID_7_)" d="M240.8,92.6c0.1,0.1,0.1,0.2,0.2,0.3C241,92.8,240.9,92.7,240.8,92.6z"/>
		<linearGradient id="SVGID_8_" gradientUnits="userSpaceOnUse" x1="240.6338" y1="239.9641" x2="240.6338" y2="34.8311">
			<stop  offset="0" style="stop-color:#626C70"/>
			<stop  offset="1" style="stop-color:#889296"/>
		</linearGradient>
		<path fill="url(#SVGID_8_)" d="M240.5,92.2c0.1,0.1,0.2,0.2,0.2,0.3C240.7,92.4,240.6,92.3,240.5,92.2z"/>
		<linearGradient id="SVGID_9_" gradientUnits="userSpaceOnUse" x1="46.8286" y1="239.9862" x2="46.8286" y2="34.8227">
			<stop  offset="0" style="stop-color:#626C70"/>
			<stop  offset="1" style="stop-color:#889296"/>
		</linearGradient>
		<path fill="url(#SVGID_9_)" d="M46.7,93.2c0.1-0.1,0.1-0.2,0.2-0.3C46.9,93.1,46.8,93.2,46.7,93.2z"/>
		<linearGradient id="SVGID_10_" gradientUnits="userSpaceOnUse" x1="46.5806" y1="239.9981" x2="46.5806" y2="34.8179">
			<stop  offset="0" style="stop-color:#626C70"/>
			<stop  offset="1" style="stop-color:#889296"/>
		</linearGradient>
		<path fill="url(#SVGID_10_)" d="M46.5,93.7c0.1-0.1,0.1-0.2,0.2-0.4C46.6,93.4,46.5,93.6,46.5,93.7z"/>
		<linearGradient id="SVGID_11_" gradientUnits="userSpaceOnUse" x1="241.4194" y1="239.9981" x2="241.4194" y2="34.8179">
			<stop  offset="0" style="stop-color:#626C70"/>
			<stop  offset="1" style="stop-color:#889296"/>
		</linearGradient>
		<path fill="url(#SVGID_11_)" d="M241.3,93.3c0.1,0.1,0.1,0.2,0.2,0.4C241.5,93.6,241.4,93.4,241.3,93.3z"/>
		<linearGradient id="SVGID_12_" gradientUnits="userSpaceOnUse" x1="260.2383" y1="240.0876" x2="260.2383" y2="34.7828">
			<stop  offset="0" style="stop-color:#626C70"/>
			<stop  offset="1" style="stop-color:#889296"/>
		</linearGradient>
		<path fill="url(#SVGID_12_)" d="M260.2,92.6C260.2,92.6,260.2,92.6,260.2,92.6C260.2,92.6,260.2,92.6,260.2,92.6z"/>
		<linearGradient id="SVGID_13_" gradientUnits="userSpaceOnUse" x1="258.5742" y1="240.0095" x2="258.5742" y2="34.8139">
			<stop  offset="0" style="stop-color:#626C70"/>
			<stop  offset="1" style="stop-color:#889296"/>
		</linearGradient>
		<path fill="url(#SVGID_13_)" d="M258.6,87.5C258.6,87.6,258.6,87.6,258.6,87.5C258.6,87.6,258.6,87.6,258.6,87.5z"/>
		<linearGradient id="SVGID_14_" gradientUnits="userSpaceOnUse" x1="239.9526" y1="240.0464" x2="239.9526" y2="34.7993">
			<stop  offset="0" style="stop-color:#626C70"/>
			<stop  offset="1" style="stop-color:#889296"/>
		</linearGradient>
		<path fill="url(#SVGID_14_)" d="M239.8,91.6c0.1,0.1,0.2,0.2,0.3,0.3C240,91.8,239.9,91.7,239.8,91.6z"/>
		<linearGradient id="SVGID_15_" gradientUnits="userSpaceOnUse" x1="239.543" y1="240.0213" x2="239.543" y2="34.8091">
			<stop  offset="0" style="stop-color:#626C70"/>
			<stop  offset="1" style="stop-color:#889296"/>
		</linearGradient>
		<path fill="url(#SVGID_15_)" d="M239.3,91.3c0.1,0.1,0.3,0.2,0.4,0.3C239.6,91.4,239.5,91.3,239.3,91.3z"/>
		<linearGradient id="SVGID_16_" gradientUnits="userSpaceOnUse" x1="240.3139" y1="240.03" x2="240.3139" y2="34.8055">
			<stop  offset="0" style="stop-color:#626C70"/>
			<stop  offset="1" style="stop-color:#889296"/>
		</linearGradient>
		<path fill="url(#SVGID_16_)" d="M240.2,91.9c0.1,0.1,0.2,0.2,0.3,0.3C240.4,92.1,240.3,92,240.2,91.9z"/>
		<linearGradient id="SVGID_17_" gradientUnits="userSpaceOnUse" x1="49.0176" y1="240.0173" x2="49.0176" y2="34.8106">
			<stop  offset="0" style="stop-color:#626C70"/>
			<stop  offset="1" style="stop-color:#889296"/>
		</linearGradient>
		<path fill="url(#SVGID_17_)" d="M49.3,90.9L49.3,90.9c-0.2,0.1-0.4,0.2-0.6,0.4c0.2-0.1,0.3-0.2,0.5-0.3
			C49.2,90.9,49.3,90.9,49.3,90.9z"/>
		<linearGradient id="SVGID_18_" gradientUnits="userSpaceOnUse" x1="48.0474" y1="240.0464" x2="48.0474" y2="34.7993">
			<stop  offset="0" style="stop-color:#626C70"/>
			<stop  offset="1" style="stop-color:#889296"/>
		</linearGradient>
		<path fill="url(#SVGID_18_)" d="M47.9,91.8c0.1-0.1,0.2-0.2,0.3-0.3C48.1,91.7,48,91.8,47.9,91.8z"/>
		<linearGradient id="SVGID_19_" gradientUnits="userSpaceOnUse" x1="238.9824" y1="240.0173" x2="238.9824" y2="34.8106">
			<stop  offset="0" style="stop-color:#626C70"/>
			<stop  offset="1" style="stop-color:#889296"/>
		</linearGradient>
		<path fill="url(#SVGID_19_)" d="M238.8,91c0.2,0.1,0.3,0.2,0.5,0.3c-0.2-0.1-0.4-0.3-0.7-0.4l0,0C238.7,90.9,238.8,90.9,238.8,91z
			"/>
		<linearGradient id="SVGID_20_" gradientUnits="userSpaceOnUse" x1="48.4571" y1="240.0213" x2="48.4571" y2="34.8091">
			<stop  offset="0" style="stop-color:#626C70"/>
			<stop  offset="1" style="stop-color:#889296"/>
		</linearGradient>
		<path fill="url(#SVGID_20_)" d="M48.3,91.5c0.1-0.1,0.3-0.2,0.4-0.3C48.5,91.3,48.4,91.4,48.3,91.5z"/>
		<linearGradient id="SVGID_21_" gradientUnits="userSpaceOnUse" x1="47.3662" y1="239.9641" x2="47.3662" y2="34.8311">
			<stop  offset="0" style="stop-color:#626C70"/>
			<stop  offset="1" style="stop-color:#889296"/>
		</linearGradient>
		<path fill="url(#SVGID_21_)" d="M47.2,92.5c0.1-0.1,0.2-0.2,0.2-0.3C47.4,92.3,47.3,92.4,47.2,92.5z"/>
		<linearGradient id="SVGID_22_" gradientUnits="userSpaceOnUse" x1="47.0835" y1="239.9768" x2="47.0835" y2="34.8263">
			<stop  offset="0" style="stop-color:#626C70"/>
			<stop  offset="1" style="stop-color:#889296"/>
		</linearGradient>
		<path fill="url(#SVGID_22_)" d="M47,92.9c0.1-0.1,0.1-0.2,0.2-0.3C47.1,92.7,47,92.8,47,92.9z"/>
		<linearGradient id="SVGID_23_" gradientUnits="userSpaceOnUse" x1="47.6861" y1="240.03" x2="47.6861" y2="34.8055">
			<stop  offset="0" style="stop-color:#626C70"/>
			<stop  offset="1" style="stop-color:#889296"/>
		</linearGradient>
		<path fill="url(#SVGID_23_)" d="M47.5,92.2c0.1-0.1,0.2-0.2,0.3-0.3C47.7,92,47.6,92.1,47.5,92.2z"/>
		<linearGradient id="SVGID_24_" gradientUnits="userSpaceOnUse" x1="47.8545" y1="239.763" x2="47.8545" y2="34.9085">
			<stop  offset="0" style="stop-color:#626C70"/>
			<stop  offset="1" style="stop-color:#889296"/>
		</linearGradient>
		<path fill="url(#SVGID_24_)" d="M47.8,91.9C47.8,91.9,47.9,91.9,47.8,91.9C47.9,91.9,47.8,91.9,47.8,91.9z"/>
		<linearGradient id="SVGID_25_" gradientUnits="userSpaceOnUse" x1="47.5162" y1="240.0377" x2="47.5162" y2="34.8025">
			<stop  offset="0" style="stop-color:#626C70"/>
			<stop  offset="1" style="stop-color:#889296"/>
		</linearGradient>
		<path fill="url(#SVGID_25_)" d="M47.5,92.2C47.5,92.2,47.5,92.2,47.5,92.2C47.5,92.2,47.5,92.2,47.5,92.2z"/>
		<linearGradient id="SVGID_26_" gradientUnits="userSpaceOnUse" x1="46.9506" y1="240.0676" x2="46.9506" y2="34.7905">
			<stop  offset="0" style="stop-color:#626C70"/>
			<stop  offset="1" style="stop-color:#889296"/>
		</linearGradient>
		<path fill="url(#SVGID_26_)" d="M46.9,93C46.9,92.9,47,92.9,46.9,93C47,92.9,46.9,92.9,46.9,93z"/>
		<linearGradient id="SVGID_27_" gradientUnits="userSpaceOnUse" x1="46.7114" y1="239.9441" x2="46.7114" y2="34.8394">
			<stop  offset="0" style="stop-color:#626C70"/>
			<stop  offset="1" style="stop-color:#889296"/>
		</linearGradient>
		<path fill="url(#SVGID_27_)" d="M46.7,93.3C46.7,93.3,46.7,93.3,46.7,93.3C46.7,93.3,46.7,93.3,46.7,93.3z"/>
		<linearGradient id="SVGID_28_" gradientUnits="userSpaceOnUse" x1="48.6694" y1="239.9143" x2="48.6694" y2="44.7143">
			<stop  offset="0" style="stop-color:#626C70"/>
			<stop  offset="1" style="stop-color:#889296"/>
		</linearGradient>
		<path fill="url(#SVGID_28_)" d="M48.7,91.3C48.7,91.3,48.7,91.2,48.7,91.3C48.7,91.2,48.7,91.3,48.7,91.3z"/>
		<linearGradient id="SVGID_29_" gradientUnits="userSpaceOnUse" x1="48.2369" y1="239.6741" x2="48.2369" y2="34.9417">
			<stop  offset="0" style="stop-color:#626C70"/>
			<stop  offset="1" style="stop-color:#889296"/>
		</linearGradient>
		<path fill="url(#SVGID_29_)" d="M48.2,91.6C48.2,91.6,48.2,91.5,48.2,91.6C48.2,91.5,48.2,91.6,48.2,91.6z"/>
		<linearGradient id="SVGID_30_" gradientUnits="userSpaceOnUse" x1="47.2168" y1="240.1415" x2="47.2168" y2="34.7617">
			<stop  offset="0" style="stop-color:#626C70"/>
			<stop  offset="1" style="stop-color:#889296"/>
		</linearGradient>
		<path fill="url(#SVGID_30_)" d="M47.2,92.6C47.2,92.6,47.2,92.5,47.2,92.6C47.2,92.5,47.2,92.6,47.2,92.6z"/>
		<linearGradient id="SVGID_31_" gradientUnits="userSpaceOnUse" x1="239.3306" y1="239.9143" x2="239.3306" y2="44.7143">
			<stop  offset="0" style="stop-color:#626C70"/>
			<stop  offset="1" style="stop-color:#889296"/>
		</linearGradient>
		<path fill="url(#SVGID_31_)" d="M239.3,91.2C239.3,91.2,239.3,91.3,239.3,91.2C239.3,91.3,239.3,91.2,239.3,91.2z"/>
		<linearGradient id="SVGID_32_" gradientUnits="userSpaceOnUse" x1="239.7632" y1="239.6741" x2="239.7632" y2="34.9417">
			<stop  offset="0" style="stop-color:#626C70"/>
			<stop  offset="1" style="stop-color:#889296"/>
		</linearGradient>
		<path fill="url(#SVGID_32_)" d="M239.7,91.5C239.8,91.5,239.8,91.6,239.7,91.5C239.8,91.6,239.8,91.5,239.7,91.5z"/>
		<linearGradient id="SVGID_33_" gradientUnits="userSpaceOnUse" x1="241.0493" y1="240.0676" x2="241.0493" y2="34.7905">
			<stop  offset="0" style="stop-color:#626C70"/>
			<stop  offset="1" style="stop-color:#889296"/>
		</linearGradient>
		<path fill="url(#SVGID_33_)" d="M241,92.9C241,92.9,241.1,92.9,241,92.9C241.1,92.9,241,92.9,241,92.9z"/>
		<linearGradient id="SVGID_34_" gradientUnits="userSpaceOnUse" x1="241.2886" y1="239.9441" x2="241.2886" y2="34.8394">
			<stop  offset="0" style="stop-color:#626C70"/>
			<stop  offset="1" style="stop-color:#889296"/>
		</linearGradient>
		<path fill="url(#SVGID_34_)" d="M241.3,93.2C241.3,93.3,241.3,93.3,241.3,93.2C241.3,93.3,241.3,93.3,241.3,93.2z"/>
		<linearGradient id="SVGID_35_" gradientUnits="userSpaceOnUse" x1="240.1455" y1="239.763" x2="240.1455" y2="34.9085">
			<stop  offset="0" style="stop-color:#626C70"/>
			<stop  offset="1" style="stop-color:#889296"/>
		</linearGradient>
		<path fill="url(#SVGID_35_)" d="M240.1,91.8C240.1,91.9,240.2,91.9,240.1,91.8C240.2,91.9,240.1,91.9,240.1,91.8z"/>
		<linearGradient id="SVGID_36_" gradientUnits="userSpaceOnUse" x1="240.7832" y1="240.1415" x2="240.7832" y2="34.7617">
			<stop  offset="0" style="stop-color:#626C70"/>
			<stop  offset="1" style="stop-color:#889296"/>
		</linearGradient>
		<path fill="url(#SVGID_36_)" d="M240.8,92.5C240.8,92.5,240.8,92.6,240.8,92.5C240.8,92.6,240.8,92.5,240.8,92.5z"/>
		<linearGradient id="SVGID_37_" gradientUnits="userSpaceOnUse" x1="240.4839" y1="240.0377" x2="240.4839" y2="34.8025">
			<stop  offset="0" style="stop-color:#626C70"/>
			<stop  offset="1" style="stop-color:#889296"/>
		</linearGradient>
		<path fill="url(#SVGID_37_)" d="M240.5,92.2C240.5,92.2,240.5,92.2,240.5,92.2C240.5,92.2,240.5,92.2,240.5,92.2z"/>
		<linearGradient id="SVGID_38_" gradientUnits="userSpaceOnUse" x1="144" y1="240.0002" x2="144" y2="34.8168">
			<stop  offset="0" style="stop-color:#626C70"/>
			<stop  offset="1" style="stop-color:#889296"/>
		</linearGradient>
		<path fill="url(#SVGID_38_)" d="M261,101.2c0-0.1,0-0.2,0-0.4c0-0.4-0.1-0.9-0.1-1.3c0,0,0-0.1,0-0.1c-0.1-0.5-0.1-1-0.2-1.5
			c0-0.1,0-0.2-0.1-0.3c-0.1-0.5-0.2-1-0.3-1.4c0,0,0,0,0-0.1c-0.1-0.5-0.3-1-0.4-1.6c0-0.1,0-0.1-0.1-0.2c-0.2-0.5-0.3-1-0.5-1.5
			c0,0,0,0,0,0c-0.2-0.5-0.4-1.1-0.6-1.6c0,0,0,0,0-0.1c-2.2-5-5.8-9.6-11.4-12.5c0,0,0,0,0,0l-0.8-0.4l0,0L144,43L41.7,78.2l0,0
			l-0.8,0.4c0,0,0,0,0,0c-5.6,2.9-9.2,7.6-11.4,12.5c0,0,0,0.1,0,0.1c-0.2,0.5-0.5,1.1-0.6,1.6c0,0,0,0,0,0c-0.2,0.5-0.4,1-0.5,1.5
			c0,0.1,0,0.1-0.1,0.2c-0.2,0.5-0.3,1-0.4,1.6c0,0,0,0,0,0.1c-0.1,0.5-0.2,1-0.3,1.4c0,0.1,0,0.2-0.1,0.3c-0.1,0.5-0.2,1-0.2,1.5
			c0,0,0,0.1,0,0.1c-0.1,0.5-0.1,0.9-0.1,1.3c0,0.1,0,0.2,0,0.4c0,0.5,0,0.9,0,1.4v6.5v17.1l13.9,6.9l0.8,0.4L144,184.6l102.3-51.2
			l0.8-0.4l13.9-6.9v-17.1v-6.5C261,102.1,261,101.7,261,101.2z M243,103.9v5.1v6l-6.1,3l-36,18L144,164.5l-56.9-28.5l-36-18l-6.1-3
			v-6v-5.1v-1.3c0-0.8,0.3-3.3,1.5-5.4c0.1-0.1,0.1-0.2,0.2-0.4c0,0,0-0.1,0.1-0.1c0.1-0.1,0.1-0.2,0.2-0.3c0,0,0-0.1,0.1-0.1
			c0.1-0.1,0.1-0.2,0.2-0.3c0,0,0-0.1,0.1-0.1c0.1-0.1,0.2-0.2,0.2-0.3c0,0,0,0,0.1-0.1c0.1-0.1,0.2-0.2,0.3-0.3c0,0,0,0,0.1-0.1
			c0.1-0.1,0.2-0.2,0.3-0.3c0,0,0,0,0.1,0c0.1-0.1,0.3-0.2,0.4-0.3c0,0,0,0,0,0c0.2-0.1,0.4-0.3,0.7-0.4L144,63.1l94.7,31.3
			c0.2,0.1,0.5,0.2,0.7,0.4c0,0,0,0,0,0c0.1,0.1,0.3,0.2,0.4,0.3c0,0,0,0,0.1,0c0.1,0.1,0.2,0.2,0.3,0.3c0,0,0,0,0.1,0.1
			c0.1,0.1,0.2,0.2,0.3,0.3c0,0,0,0,0.1,0.1c0.1,0.1,0.2,0.2,0.2,0.3c0,0,0,0.1,0.1,0.1c0.1,0.1,0.1,0.2,0.2,0.3c0,0,0,0.1,0.1,0.1
			c0.1,0.1,0.1,0.2,0.2,0.3c0,0,0,0.1,0.1,0.1c0.1,0.1,0.1,0.2,0.2,0.4c1.1,2.1,1.4,4.6,1.5,5.4V103.9z"/>
	</g>
</g>
<g id="LABELS" display="none">
	<rect y="288" display="inline" fill="none" width="288" height="54"/>
	
		<text transform="matrix(1 0 0 1 62.019 303.0039)" display="inline" fill="#58595B" font-family="'GillSans'" font-size="22" letter-spacing="1">READ MESSAGE</text>
</g>
<g id="Layer_1_1_">
</g>
</svg>
