<?xml version="1.0" encoding="utf-8"?>
<!-- Generator: Adobe Illustrator 17.1.0, SVG Export Plug-In . SVG Version: 6.00 Build 0)  -->
<!DOCTYPE svg PUBLIC "-//W3C//DTD SVG 1.1//EN" "http://www.w3.org/Graphics/SVG/1.1/DTD/svg11.dtd">
<svg version="1.1" xmlns="http://www.w3.org/2000/svg" xmlns:xlink="http://www.w3.org/1999/xlink" x="0px" y="0px"
	 viewBox="0 0 288 288" enable-background="new 0 0 288 288" xml:space="preserve">
<g id="MESSAGE_REPLIED">
	<g>
		<linearGradient id="SVGID_1_" gradientUnits="userSpaceOnUse" x1="38.6362" y1="31.9996" x2="38.6362" y2="259.6069">
			<stop  offset="0" style="stop-color:#889296"/>
			<stop  offset="1" style="stop-color:#626C70"/>
		</linearGradient>
		<polygon fill="url(#SVGID_1_)" points="38.6,155.6 5.3,189 38.6,222.4 51.4,209.6 39.7,198 72,198 72,180 39.7,180 51.4,168.4 		
			"/>
		<linearGradient id="SVGID_2_" gradientUnits="userSpaceOnUse" x1="144" y1="31.9999" x2="144" y2="259.6071">
			<stop  offset="0" style="stop-color:#889296"/>
			<stop  offset="1" style="stop-color:#626C70"/>
		</linearGradient>
		<path fill="url(#SVGID_2_)" d="M261,110.2c0-0.1,0-0.2,0-0.4c0-0.4-0.1-0.9-0.1-1.3c0,0,0-0.1,0-0.1c-0.1-0.5-0.1-1-0.2-1.5
			c0-0.1,0-0.2-0.1-0.3c-0.1-0.5-0.2-1-0.3-1.4c0,0,0,0,0-0.1c-0.1-0.5-0.3-1-0.4-1.6c0-0.1,0-0.1-0.1-0.2c-0.2-0.5-0.3-1-0.5-1.5
			c0,0,0,0,0,0c-0.2-0.5-0.4-1.1-0.6-1.6c0,0,0,0,0-0.1c-2.2-5-5.8-9.6-11.4-12.5c0,0,0,0,0,0l-0.8-0.4l0,0L144,36L41.7,87.2l0,0
			l-0.8,0.4c0,0,0,0,0,0c-5.6,2.9-9.2,7.6-11.4,12.5c0,0,0,0.1,0,0.1c-0.2,0.5-0.5,1.1-0.6,1.6c0,0,0,0,0,0c-0.2,0.5-0.4,1-0.5,1.5
			c0,0.1,0,0.1-0.1,0.2c-0.2,0.5-0.3,1-0.4,1.6c0,0,0,0,0,0.1c-0.1,0.5-0.2,1-0.3,1.4c0,0.1,0,0.2-0.1,0.3c-0.1,0.5-0.2,1-0.2,1.5
			c0,0,0,0.1,0,0.1c-0.1,0.5-0.1,0.9-0.1,1.3c0,0.1,0,0.2,0,0.4c0,0.5,0,0.9,0,1.4v6.5v17.1l13.9,6.9l0.8,0.4L144,193.6l102.3-51.2
			l0.8-0.4l13.9-6.9v-17.1v-6.5C261,111.1,261,110.7,261,110.2z M243,112.9v5.1v6l-6.1,3l-36,18L144,173.5l-56.9-28.5l-36-18l-6.1-3
			v-6v-5.1v-1.3c0-0.8,0.3-3.3,1.5-5.4c0.1-0.1,0.1-0.2,0.2-0.4c0,0,0-0.1,0.1-0.1c0.1-0.1,0.1-0.2,0.2-0.3c0,0,0-0.1,0.1-0.1
			c0.1-0.1,0.1-0.2,0.2-0.3c0,0,0-0.1,0.1-0.1c0.1-0.1,0.2-0.2,0.2-0.3c0,0,0,0,0.1-0.1c0.1-0.1,0.2-0.2,0.3-0.3c0,0,0,0,0.1-0.1
			c0.1-0.1,0.2-0.2,0.3-0.3c0,0,0,0,0.1,0c0.1-0.1,0.3-0.2,0.4-0.3c0,0,0,0,0,0c0.2-0.1,0.4-0.3,0.7-0.4l37.7-18.9L144,56.1
			l56.9,28.5l37.7,18.9c0.2,0.1,0.5,0.2,0.7,0.4c0,0,0,0,0,0c0.1,0.1,0.3,0.2,0.4,0.3c0,0,0,0,0.1,0c0.1,0.1,0.2,0.2,0.3,0.3
			c0,0,0,0,0.1,0.1c0.1,0.1,0.2,0.2,0.3,0.3c0,0,0,0,0.1,0.1c0.1,0.1,0.2,0.2,0.2,0.3c0,0,0,0.1,0.1,0.1c0.1,0.1,0.1,0.2,0.2,0.3
			c0,0,0,0.1,0.1,0.1c0.1,0.1,0.1,0.2,0.2,0.3c0,0,0,0.1,0.1,0.1c0.1,0.1,0.1,0.2,0.2,0.4c1.1,2.1,1.4,4.6,1.5,5.4V112.9z"/>
	</g>
	<linearGradient id="SVGID_3_" gradientUnits="userSpaceOnUse" x1="155.6357" y1="31.9996" x2="155.6357" y2="259.6067">
		<stop  offset="0" style="stop-color:#889296"/>
		<stop  offset="1" style="stop-color:#626C70"/>
	</linearGradient>
	<path fill="url(#SVGID_3_)" d="M243,160.7v64.2c0,0.8-0.3,3.3-1.5,5.4c-1,1.8-2.7,3.7-7.5,3.7H63h-9h-3.7l18,18H234
		c19.8,0,27-16.1,27-27v-73.3L243,160.7z"/>
</g>
<g id="LABELS" display="none">
	<rect y="288" display="inline" fill="none" width="288" height="54"/>
	
		<text transform="matrix(1 0 0 1 48.4556 303.0039)" display="inline" fill="#58595B" font-family="'GillSans'" font-size="22" letter-spacing="1">MESSAGE REPLIED</text>
</g>
<g id="Layer_1_1_">
</g>
</svg>
