<?xml version="1.0" encoding="utf-8"?>
<!-- Generator: Adobe Illustrator 17.1.0, SVG Export Plug-In . SVG Version: 6.00 Build 0)  -->
<!DOCTYPE svg PUBLIC "-//W3C//DTD SVG 1.1//EN" "http://www.w3.org/Graphics/SVG/1.1/DTD/svg11.dtd">
<svg version="1.1" xmlns="http://www.w3.org/2000/svg" xmlns:xlink="http://www.w3.org/1999/xlink" x="0px" y="0px"
	 viewBox="0 0 288 288" enable-background="new 0 0 288 288" xml:space="preserve">
<g id="PAYEE_FIRST_PAYMENT">
	<linearGradient id="SVGID_1_" gradientUnits="userSpaceOnUse" x1="126" y1="62" x2="126" y2="231.425">
		<stop  offset="0" style="stop-color:#889296"/>
		<stop  offset="1" style="stop-color:#626C70"/>
	</linearGradient>
	<path fill="url(#SVGID_1_)" d="M126,162v-18c9.9,0,18-8.1,18-18s-8.1-18-18-18h-18v90H90V90h36c19.9,0,36,16.1,36,36
		S145.9,162,126,162z"/>
	<linearGradient id="SVGID_2_" gradientUnits="userSpaceOnUse" x1="144" y1="61.9999" x2="144" y2="231.4255">
		<stop  offset="0" style="stop-color:#889296"/>
		<stop  offset="1" style="stop-color:#626C70"/>
	</linearGradient>
	<path fill="url(#SVGID_2_)" d="M207,72c9,0,9,9,9,9s0,117,0,126c0,9-9,9-9,9s-117,0-126,0s-9-9-9-9V81c0,0,0-9,9-9
		C88.5,72,198,72,207,72 M207,54H81c-10.5,0-19.5,5.4-24,14.5C54.3,73.9,54,79,54,81v126c0,2,0.3,7.1,3,12.5
		c4.5,9.1,13.5,14.5,24,14.5h126c2,0,7.1-0.3,12.6-3c9-4.5,14.4-13.5,14.4-24V81c0-2-0.3-7.1-3-12.5C226.5,59.4,217.5,54,207,54
		L207,54z"/>
	<linearGradient id="SVGID_3_" gradientUnits="userSpaceOnUse" x1="189.001" y1="62" x2="189.001" y2="231.4254">
		<stop  offset="0" style="stop-color:#889296"/>
		<stop  offset="1" style="stop-color:#626C70"/>
	</linearGradient>
	<rect x="180" y="90" fill="url(#SVGID_3_)" width="18" height="72"/>
	<linearGradient id="SVGID_4_" gradientUnits="userSpaceOnUse" x1="189" y1="61.9999" x2="189" y2="231.4255">
		<stop  offset="0" style="stop-color:#889296"/>
		<stop  offset="1" style="stop-color:#626C70"/>
	</linearGradient>
	<circle fill="url(#SVGID_4_)" cx="189" cy="184.5" r="13.5"/>
</g>
<g id="LABELS" display="none">
	<rect y="288" display="inline" fill="none" width="288" height="54"/>
	<text transform="matrix(1 0 0 1 80.4053 303.0039)" display="inline"><tspan x="0" y="0" fill="#58595B" font-family="'GillSans'" font-size="22" letter-spacing="1">NEW PAYEE</tspan><tspan x="-29.4" y="26.4" fill="#58595B" font-family="'GillSans'" font-size="22" letter-spacing="1">(FIRST PAYMENT)</tspan></text>
</g>
<g id="Layer_1_1_">
</g>
</svg>
