<?xml version="1.0" encoding="utf-8"?>
<!-- Generator: Adobe Illustrator 17.1.0, SVG Export Plug-In . SVG Version: 6.00 Build 0)  -->
<!DOCTYPE svg PUBLIC "-//W3C//DTD SVG 1.1//EN" "http://www.w3.org/Graphics/SVG/1.1/DTD/svg11.dtd">
<svg version="1.1" xmlns="http://www.w3.org/2000/svg" xmlns:xlink="http://www.w3.org/1999/xlink" x="0px" y="0px"
	 viewBox="0 0 288 288" enable-background="new 0 0 288 288" xml:space="preserve">
<g id="FOLDER">
	<linearGradient id="SVGID_1_" gradientUnits="userSpaceOnUse" x1="144" y1="64" x2="144" y2="224.5017">
		<stop  offset="0" style="stop-color:#889296"/>
		<stop  offset="1" style="stop-color:#626C70"/>
	</linearGradient>
	<path fill="url(#SVGID_1_)" d="M225,63h-39.7l-18,18H45v18h18v0h111.7l18-18H225c0,0.1,0,0.1,0,0.2V198c0,0-0.1,2.6-1.3,5
		c-1,2-2.7,4-7.7,4l-144,0c-4.8,0-6.5-1.9-7.5-3.7c-1.1-2.1-1.4-4.6-1.5-5.4V117H45v81c0,1.1,0.2,6.9,3.2,13c4.5,9,13,14,23.8,14
		l144,0c19.8,0,27-16.1,27-27V81C243,72.3,236.7,63,225,63z"/>
</g>
<g id="LABELS" display="none">
	<rect y="288" display="inline" fill="none" width="288" height="54"/>
	
		<text transform="matrix(1 0 0 1 101.2461 303.0039)" display="inline" fill="#58595B" font-family="'GillSans'" font-size="22" letter-spacing="1">FOLDER</text>
</g>
<g id="Layer_1_1_">
</g>
</svg>
