<?xml version="1.0" encoding="utf-8"?>
<!-- Generator: Adobe Illustrator 17.1.0, SVG Export Plug-In . SVG Version: 6.00 Build 0)  -->
<!DOCTYPE svg PUBLIC "-//W3C//DTD SVG 1.1//EN" "http://www.w3.org/Graphics/SVG/1.1/DTD/svg11.dtd">
<svg version="1.1" xmlns="http://www.w3.org/2000/svg" xmlns:xlink="http://www.w3.org/1999/xlink" x="0px" y="0px"
	 viewBox="0 0 288 288" enable-background="new 0 0 288 288" xml:space="preserve">
<g id="WARNING">
	<linearGradient id="SVGID_1_" gradientUnits="userSpaceOnUse" x1="144" y1="241.9991" x2="144" y2="44.3007">
		<stop  offset="0" style="stop-color:#626C70"/>
		<stop  offset="1" style="stop-color:#889296"/>
	</linearGradient>
	<path fill="url(#SVGID_1_)" d="M248.8,203.3L248.8,203.3l-0.1-0.2l-0.1-0.2L167.9,59.5l-0.7-1.3l0,0c-1.1-1.9-2.5-3.7-4.1-5.3
		C158,47.8,151.2,45,144,45s-14,2.8-19.1,7.9c-1.6,1.6-3,3.4-4.1,5.3l0,0l-0.7,1.2L39.9,202c-2.5,4.2-3.9,9-3.9,14
		c0,7.2,2.8,14,7.9,19.1C49,240.2,55.8,243,63,243h162c14.9,0,27-12.1,27-27C252,211.4,250.9,207.1,248.8,203.3z M225,225h-25.5
		H88.5H63c-2.4,0-4.7-0.9-6.4-2.6c-1.7-1.7-2.6-4-2.6-6.4c0-1.5,0.3-2.9,1-4.1l0.2-0.4l12.4-22.1l56-99.6l12.5-22.1l0.2-0.4
		c0.4-0.6,0.8-1.1,1.2-1.6c1.7-1.7,4-2.6,6.4-2.6c2.4,0,4.7,0.9,6.4,2.6c0.6,0.6,1,1.2,1.4,1.9l0.2,0.4l12.3,21.9l56,99.6l12.5,22.2
		c0,0.1,0.1,0.1,0.1,0.2c0.7,1.3,1,2.7,1,4.2C234,221,230,225,225,225z"/>
	<linearGradient id="SVGID_2_" gradientUnits="userSpaceOnUse" x1="144" y1="241.9993" x2="144" y2="44.3015">
		<stop  offset="0" style="stop-color:#626C70"/>
		<stop  offset="1" style="stop-color:#889296"/>
	</linearGradient>
	<rect x="135" y="99" fill="url(#SVGID_2_)" width="18" height="63"/>
	<linearGradient id="SVGID_3_" gradientUnits="userSpaceOnUse" x1="144" y1="241.9991" x2="144" y2="44.3011">
		<stop  offset="0" style="stop-color:#626C70"/>
		<stop  offset="1" style="stop-color:#889296"/>
	</linearGradient>
	<circle fill="url(#SVGID_3_)" cx="144" cy="189" r="13.5"/>
</g>
<g id="LABELS" display="none">
	<rect y="288" display="inline" fill="none" width="288" height="54"/>
	
		<text transform="matrix(1 0 0 1 87.188 303.0039)" display="inline" fill="#58595B" font-family="'GillSans'" font-size="22" letter-spacing="1">WARNING</text>
</g>
<g id="Layer_1_1_">
</g>
</svg>
