<?xml version="1.0" encoding="utf-8"?>
<!-- Generator: Adobe Illustrator 17.1.0, SVG Export Plug-In . SVG Version: 6.00 Build 0)  -->
<!DOCTYPE svg PUBLIC "-//W3C//DTD SVG 1.1//EN" "http://www.w3.org/Graphics/SVG/1.1/DTD/svg11.dtd">
<svg version="1.1" xmlns="http://www.w3.org/2000/svg" xmlns:xlink="http://www.w3.org/1999/xlink" x="0px" y="0px"
	 viewBox="0 0 288 288" enable-background="new 0 0 288 288" xml:space="preserve">
<g id="MESSAGE">
</g>
<g id="LABELS" display="none">
	<rect y="288" display="inline" fill="none" width="288" height="54"/>
	
		<text transform="matrix(1 0 0 1 89.9678 303.0039)" display="inline" fill="#58595B" font-family="'GillSans'" font-size="22" letter-spacing="1">MESSAGES</text>
</g>
<g id="Layer_1_1_">
	<path fill="#FFFFFF" d="M144,243c-49.5,0-89.8-40.3-89.8-89.8c0-38,24-72,59.8-84.7l6,17c-28.6,10.1-47.8,37.3-47.8,67.7
		c0,39.6,32.2,71.8,71.8,71.8s71.8-32.2,71.8-71.8c0-30.4-19.2-57.6-47.8-67.7l6-17c35.8,12.7,59.8,46.7,59.8,84.7
		C233.8,202.7,193.5,243,144,243z M153,27h-18v117h18V27z"/>
	<rect fill="none" width="288" height="288"/>
</g>
</svg>
