<?xml version="1.0" encoding="utf-8"?>
<!-- Generator: Adobe Illustrator 17.1.0, SVG Export Plug-In . SVG Version: 6.00 Build 0)  -->
<!DOCTYPE svg PUBLIC "-//W3C//DTD SVG 1.1//EN" "http://www.w3.org/Graphics/SVG/1.1/DTD/svg11.dtd">
<svg version="1.1" id="Layer_1" xmlns="http://www.w3.org/2000/svg" xmlns:xlink="http://www.w3.org/1999/xlink" x="0px" y="0px"
	 viewBox="18.3 14 118.9 25" enable-background="new 18.3 14 118.9 25" xml:space="preserve">
<g>
	<path fill="#889296" d="M37.5,22.5c0,2.6-0.9,4.8-2.7,6.3S30.5,31,27.4,31h-1.3l-1.6,7.7h-6.2l4.9-23.1H29c2.7,0,4.8,0.6,6.3,1.8
		C36.8,18.5,37.5,20.2,37.5,22.5z M27.2,25.9h1c0.9,0,1.7-0.3,2.3-0.9c0.6-0.6,0.9-1.4,0.9-2.3c0-0.6-0.2-1.1-0.6-1.5
		s-0.9-0.6-1.6-0.6h-0.9L27.2,25.9z"/>
	<path fill="#F7931E" d="M52.9,38.7H37l0.8-4l7.6-6.9c2.6-2.3,3.9-4.3,3.9-5.7c0-0.5-0.1-0.9-0.4-1.2c-0.3-0.3-0.6-0.4-1-0.4
		c-1.2,0-2.7,0.8-4.5,2.3l-2.9-4c2.4-2.3,5.3-3.5,8.5-3.5c1.9,0,3.4,0.5,4.7,1.6c1.2,1,1.7,2.4,1.7,4.3c0,1.6-0.4,3.1-1.4,4.5
		c-0.9,1.4-2.4,3-4.8,5L46,33.3v0.2h7.7L52.9,38.7z"/>
	<path fill="#9E9D9D" d="M68.4,15.6h6.4c2.8,0,5,0.5,6.3,1.4c1.3,1,2,2.4,2,4.4c0,1.3-0.4,2.4-1.2,3.3s-2,1.5-3.5,1.7v0.1
		c1.8,0.3,3.2,0.8,4,1.7c0.8,0.9,1.3,2.1,1.3,3.7c0,2.1-0.7,3.7-2.1,4.9s-3.4,1.7-6,1.7h-7.1v-23L68.4,15.6L68.4,15.6z M70,25.8h5
		c2.1,0,3.7-0.4,4.8-1.1c1-0.7,1.5-1.8,1.5-3.3s-0.5-2.6-1.6-3.3c-1.1-0.7-2.8-1-5-1H70v8.8h0V25.8z M70,27.3v10h5.5
		c4.3,0,6.4-1.7,6.4-5.2c0-3.2-2.2-4.8-6.8-4.8H70L70,27.3L70,27.3z"/>
	<path fill="#9E9D9D" d="M98.6,38.7L98.2,36h-0.1c-0.8,1.1-1.7,1.9-2.6,2.3c-0.9,0.4-2,0.7-3.2,0.7c-1.7,0-3-0.4-3.9-1.3
		c-0.9-0.8-1.4-2-1.4-3.5c0-1.6,0.7-2.9,2.1-3.9c1.4-0.9,3.4-1.4,6.1-1.5l3.2-0.1v-1.1c0-1.6-0.3-2.8-1-3.6
		c-0.7-0.8-1.7-1.2-3.2-1.2c-1.6,0-3.2,0.4-5,1.3l-0.6-1.3c1.9-0.9,3.7-1.3,5.6-1.3s3.2,0.5,4.3,1.5c0.9,1,1.4,2.5,1.4,4.6v11.3
		L98.6,38.7L98.6,38.7z M92.3,37.5c1.8,0,3.2-0.5,4.4-1.6c1.1-1,1.6-2.5,1.6-4.4v-1.7l-3,0.1c-2.4,0.1-4.1,0.5-5.2,1.1
		s-1.5,1.6-1.5,2.9c0,1.1,0.3,1.9,1,2.5C90.3,37.1,91.1,37.5,92.3,37.5z"/>
	<path fill="#9E9D9D" d="M117.2,38.7V27.5c0-1.7-0.4-2.9-1.1-3.7c-0.7-0.8-1.8-1.2-3.3-1.2c-2,0-3.5,0.5-4.5,1.6
		c-0.9,1-1.4,2.7-1.4,5.1v9.5h-1.6V21.6h1.3l0.3,2.3h0.1c1.1-1.8,3.1-2.7,6-2.7c3.9,0,5.9,2.1,5.9,6.3v11.2H117.2L117.2,38.7z"/>
	<path fill="#9E9D9D" d="M126,31.2l8.8-9.6h1.9l-6.8,7.3l7.3,9.8h-1.9l-6.5-8.7l-2.8,2.5v6.1h-1.6V14h1.6v12.3V31.2L126,31.2
		L126,31.2z"/>
</g>
</svg>
