<?xml version="1.0" encoding="utf-8"?>
<!-- Generator: Adobe Illustrator 17.1.0, SVG Export Plug-In . SVG Version: 6.00 Build 0)  -->
<!DOCTYPE svg PUBLIC "-//W3C//DTD SVG 1.1//EN" "http://www.w3.org/Graphics/SVG/1.1/DTD/svg11.dtd">
<svg version="1.1" id="Layer_1" xmlns="http://www.w3.org/2000/svg" xmlns:xlink="http://www.w3.org/1999/xlink" x="0px" y="0px"
	 viewBox="0 0 288 288" enable-background="new 0 0 288 288" xml:space="preserve">
<line fill="none" stroke="#FFFFFF" stroke-width="2.2" stroke-miterlimit="10" x1="132.4" y1="149.1" x2="155.6" y2="149.1"/>
<g>
	<path fill="#FFFFFF" d="M132.4,149c1,0,1.9-0.5,2.5-1.3l6.6-9.9c0.9-1.4,2.8-1.8,4.2-0.8c0.3,0.2,0.6,0.5,0.8,0.8l6.6,9.9
		c0.6,0.8,1.5,1.3,2.5,1.3"/>
	<path fill="none" stroke="#DADADA" stroke-width="2" stroke-linecap="round" stroke-linejoin="round" stroke-miterlimit="10" d="
		M132.4,149c1,0,1.9-0.5,2.5-1.3l6.6-9.9c0.9-1.4,2.8-1.8,4.2-0.8c0.3,0.2,0.6,0.5,0.8,0.8l6.6,9.9c0.6,0.8,1.5,1.3,2.5,1.3"/>
</g>
</svg>
