<?xml version="1.0" encoding="utf-8"?>
<!-- Generator: Adobe Illustrator 17.1.0, SVG Export Plug-In . SVG Version: 6.00 Build 0)  -->
<!DOCTYPE svg PUBLIC "-//W3C//DTD SVG 1.1//EN" "http://www.w3.org/Graphics/SVG/1.1/DTD/svg11.dtd">
<svg version="1.1" id="Layer_1" xmlns="http://www.w3.org/2000/svg" xmlns:xlink="http://www.w3.org/1999/xlink" x="0px" y="0px"
	 viewBox="0 0 288 288" enable-background="new 0 0 288 288" xml:space="preserve">
<g>
	<rect x="28" y="28" fill="#666666" width="8" height="56"/>
	<rect x="28" y="108" fill="#666666" width="8" height="24"/>
	<rect x="28" y="164" fill="#666666" width="8" height="8"/>
	<rect x="28" y="180" fill="#666666" width="8" height="16"/>
	<rect x="28" y="204" fill="#666666" width="8" height="56"/>
	<rect x="36" y="28" fill="#666666" width="8" height="8"/>
	<rect x="36" y="76" fill="#666666" width="8" height="8"/>
	<rect x="36" y="100" fill="#666666" width="8" height="8"/>
	<rect x="36" y="116" fill="#666666" width="8" height="8"/>
	<rect x="36" y="132" fill="#666666" width="8" height="8"/>
	<rect x="36" y="172" fill="#666666" width="8" height="16"/>
	<rect x="36" y="204" fill="#666666" width="8" height="8"/>
	<rect x="36" y="252" fill="#666666" width="8" height="8"/>
	<rect x="44" y="28" fill="#666666" width="8" height="8"/>
	<rect x="44" y="44" fill="#666666" width="8" height="24"/>
	<rect x="44" y="76" fill="#666666" width="8" height="8"/>
	<rect x="44" y="92" fill="#666666" width="8" height="24"/>
	<rect x="44" y="124" fill="#666666" width="8" height="16"/>
	<rect x="44" y="156" fill="#666666" width="8" height="8"/>
	<rect x="44" y="180" fill="#666666" width="8" height="8"/>
	<rect x="44" y="204" fill="#666666" width="8" height="8"/>
	<rect x="44" y="220" fill="#666666" width="8" height="24"/>
	<rect x="44" y="252" fill="#666666" width="8" height="8"/>
	<rect x="52" y="28" fill="#666666" width="8" height="8"/>
	<rect x="52" y="44" fill="#666666" width="8" height="24"/>
	<rect x="52" y="76" fill="#666666" width="8" height="8"/>
	<rect x="52" y="92" fill="#666666" width="8" height="8"/>
	<rect x="52" y="116" fill="#666666" width="8" height="32"/>
	<rect x="52" y="156" fill="#666666" width="8" height="8"/>
	<rect x="52" y="172" fill="#666666" width="8" height="24"/>
	<rect x="52" y="204" fill="#666666" width="8" height="8"/>
	<rect x="52" y="220" fill="#666666" width="8" height="24"/>
	<rect x="52" y="252" fill="#666666" width="8" height="8"/>
	<rect x="60" y="28" fill="#666666" width="8" height="8"/>
	<rect x="60" y="44" fill="#666666" width="8" height="24"/>
	<rect x="60" y="76" fill="#666666" width="8" height="8"/>
	<rect x="60" y="108" fill="#666666" width="8" height="8"/>
	<rect x="60" y="140" fill="#666666" width="8" height="32"/>
	<rect x="60" y="180" fill="#666666" width="8" height="16"/>
	<rect x="60" y="204" fill="#666666" width="8" height="8"/>
	<rect x="60" y="220" fill="#666666" width="8" height="24"/>
	<rect x="60" y="252" fill="#666666" width="8" height="8"/>
	<rect x="68" y="28" fill="#666666" width="8" height="8"/>
	<rect x="68" y="76" fill="#666666" width="8" height="8"/>
	<rect x="68" y="140" fill="#666666" width="8" height="8"/>
	<rect x="68" y="188" fill="#666666" width="8" height="8"/>
	<rect x="68" y="204" fill="#666666" width="8" height="8"/>
	<rect x="68" y="252" fill="#666666" width="8" height="8"/>
	<rect x="76" y="28" fill="#666666" width="8" height="56"/>
	<rect x="76" y="92" fill="#666666" width="8" height="8"/>
	<rect x="76" y="108" fill="#666666" width="8" height="8"/>
	<rect x="76" y="124" fill="#666666" width="8" height="8"/>
	<rect x="76" y="140" fill="#666666" width="8" height="8"/>
	<rect x="76" y="156" fill="#666666" width="8" height="8"/>
	<rect x="76" y="172" fill="#666666" width="8" height="8"/>
	<rect x="76" y="188" fill="#666666" width="8" height="8"/>
	<rect x="76" y="204" fill="#666666" width="8" height="56"/>
	<rect x="84" y="92" fill="#666666" width="8" height="16"/>
	<rect x="84" y="116" fill="#666666" width="8" height="40"/>
	<rect x="92" y="60" fill="#666666" width="8" height="8"/>
	<rect x="92" y="76" fill="#666666" width="8" height="24"/>
	<rect x="92" y="108" fill="#666666" width="8" height="16"/>
	<rect x="92" y="140" fill="#666666" width="8" height="24"/>
	<rect x="92" y="196" fill="#666666" width="8" height="16"/>
	<rect x="92" y="228" fill="#666666" width="8" height="16"/>
	<rect x="100" y="44" fill="#666666" width="8" height="8"/>
	<rect x="100" y="84" fill="#666666" width="8" height="8"/>
	<rect x="100" y="100" fill="#666666" width="8" height="8"/>
	<rect x="100" y="124" fill="#666666" width="8" height="16"/>
	<rect x="100" y="156" fill="#666666" width="8" height="24"/>
	<rect x="100" y="196" fill="#666666" width="8" height="24"/>
	<rect x="100" y="228" fill="#666666" width="8" height="32"/>
	<rect x="108" y="36" fill="#666666" width="8" height="8"/>
	<rect x="108" y="52" fill="#666666" width="8" height="16"/>
	<rect x="108" y="76" fill="#666666" width="8" height="16"/>
	<rect x="108" y="100" fill="#666666" width="8" height="8"/>
	<rect x="108" y="132" fill="#666666" width="8" height="8"/>
	<rect x="108" y="148" fill="#666666" width="8" height="8"/>
	<rect x="108" y="204" fill="#666666" width="8" height="8"/>
	<rect x="108" y="236" fill="#666666" width="8" height="8"/>
	<rect x="116" y="28" fill="#666666" width="8" height="16"/>
	<rect x="116" y="52" fill="#666666" width="8" height="16"/>
	<rect x="116" y="92" fill="#666666" width="8" height="8"/>
	<rect x="116" y="108" fill="#666666" width="8" height="8"/>
	<rect x="116" y="132" fill="#666666" width="8" height="16"/>
	<rect x="116" y="180" fill="#666666" width="8" height="16"/>
	<rect x="116" y="204" fill="#666666" width="8" height="16"/>
	<rect x="116" y="236" fill="#666666" width="8" height="24"/>
	<rect x="124" y="36" fill="#666666" width="8" height="8"/>
	<rect x="124" y="76" fill="#666666" width="8" height="8"/>
	<rect x="124" y="116" fill="#666666" width="8" height="8"/>
	<rect x="124" y="132" fill="#666666" width="8" height="16"/>
	<rect x="124" y="164" fill="#666666" width="8" height="16"/>
	<rect x="124" y="188" fill="#666666" width="8" height="8"/>
	<rect x="124" y="212" fill="#666666" width="8" height="16"/>
	<rect x="124" y="244" fill="#666666" width="8" height="8"/>
	<rect x="132" y="28" fill="#666666" width="8" height="8"/>
	<rect x="132" y="52" fill="#666666" width="8" height="8"/>
	<rect x="132" y="84" fill="#666666" width="8" height="32"/>
	<rect x="132" y="132" fill="#666666" width="8" height="40"/>
	<rect x="132" y="180" fill="#666666" width="8" height="16"/>
	<rect x="132" y="252" fill="#666666" width="8" height="8"/>
	<rect x="140" y="28" fill="#666666" width="8" height="24"/>
	<rect x="140" y="60" fill="#666666" width="8" height="56"/>
	<rect x="140" y="124" fill="#666666" width="8" height="16"/>
	<rect x="140" y="148" fill="#666666" width="8" height="16"/>
	<rect x="140" y="172" fill="#666666" width="8" height="8"/>
	<rect x="140" y="196" fill="#666666" width="8" height="8"/>
	<rect x="140" y="220" fill="#666666" width="8" height="8"/>
	<rect x="140" y="236" fill="#666666" width="8" height="8"/>
	<rect x="148" y="36" fill="#666666" width="8" height="8"/>
	<rect x="148" y="92" fill="#666666" width="8" height="16"/>
	<rect x="148" y="116" fill="#666666" width="8" height="16"/>
	<rect x="148" y="156" fill="#666666" width="8" height="8"/>
	<rect x="148" y="172" fill="#666666" width="8" height="32"/>
	<rect x="148" y="220" fill="#666666" width="8" height="8"/>
	<rect x="156" y="36" fill="#666666" width="8" height="8"/>
	<rect x="156" y="52" fill="#666666" width="8" height="32"/>
	<rect x="156" y="92" fill="#666666" width="8" height="16"/>
	<rect x="156" y="132" fill="#666666" width="8" height="32"/>
	<rect x="156" y="204" fill="#666666" width="8" height="8"/>
	<rect x="156" y="228" fill="#666666" width="8" height="32"/>
	<rect x="164" y="52" fill="#666666" width="8" height="16"/>
	<rect x="164" y="84" fill="#666666" width="8" height="8"/>
	<rect x="164" y="148" fill="#666666" width="8" height="8"/>
	<rect x="164" y="164" fill="#666666" width="8" height="16"/>
	<rect x="164" y="188" fill="#666666" width="8" height="8"/>
	<rect x="164" y="204" fill="#666666" width="8" height="8"/>
	<rect x="164" y="220" fill="#666666" width="8" height="16"/>
	<rect x="164" y="244" fill="#666666" width="8" height="16"/>
	<rect x="172" y="28" fill="#666666" width="8" height="8"/>
	<rect x="172" y="76" fill="#666666" width="8" height="16"/>
	<rect x="172" y="108" fill="#666666" width="8" height="8"/>
	<rect x="172" y="140" fill="#666666" width="8" height="16"/>
	<rect x="172" y="180" fill="#666666" width="8" height="24"/>
	<rect x="172" y="212" fill="#666666" width="8" height="8"/>
	<rect x="172" y="228" fill="#666666" width="8" height="24"/>
	<rect x="180" y="36" fill="#666666" width="8" height="8"/>
	<rect x="180" y="52" fill="#666666" width="8" height="24"/>
	<rect x="180" y="84" fill="#666666" width="8" height="16"/>
	<rect x="180" y="116" fill="#666666" width="8" height="48"/>
	<rect x="180" y="180" fill="#666666" width="8" height="8"/>
	<rect x="180" y="204" fill="#666666" width="8" height="16"/>
	<rect x="180" y="228" fill="#666666" width="8" height="8"/>
	<rect x="180" y="252" fill="#666666" width="8" height="8"/>
	<rect x="188" y="28" fill="#666666" width="8" height="32"/>
	<rect x="188" y="68" fill="#666666" width="8" height="24"/>
	<rect x="188" y="116" fill="#666666" width="8" height="8"/>
	<rect x="188" y="148" fill="#666666" width="8" height="32"/>
	<rect x="188" y="188" fill="#666666" width="8" height="40"/>
	<rect x="188" y="244" fill="#666666" width="8" height="16"/>
	<rect x="196" y="92" fill="#666666" width="8" height="16"/>
	<rect x="196" y="116" fill="#666666" width="8" height="8"/>
	<rect x="196" y="140" fill="#666666" width="8" height="24"/>
	<rect x="196" y="188" fill="#666666" width="8" height="8"/>
	<rect x="196" y="220" fill="#666666" width="8" height="16"/>
	<rect x="196" y="244" fill="#666666" width="8" height="16"/>
	<rect x="204" y="28" fill="#666666" width="8" height="56"/>
	<rect x="204" y="92" fill="#666666" width="8" height="32"/>
	<rect x="204" y="132" fill="#666666" width="8" height="8"/>
	<rect x="204" y="148" fill="#666666" width="8" height="8"/>
	<rect x="204" y="172" fill="#666666" width="8" height="24"/>
	<rect x="204" y="204" fill="#666666" width="8" height="8"/>
	<rect x="204" y="220" fill="#666666" width="8" height="8"/>
	<rect x="204" y="252" fill="#666666" width="8" height="8"/>
	<rect x="212" y="28" fill="#666666" width="8" height="8"/>
	<rect x="212" y="76" fill="#666666" width="8" height="8"/>
	<rect x="212" y="108" fill="#666666" width="8" height="8"/>
	<rect x="212" y="140" fill="#666666" width="8" height="8"/>
	<rect x="212" y="164" fill="#666666" width="8" height="32"/>
	<rect x="212" y="220" fill="#666666" width="8" height="24"/>
	<rect x="220" y="28" fill="#666666" width="8" height="8"/>
	<rect x="220" y="44" fill="#666666" width="8" height="24"/>
	<rect x="220" y="76" fill="#666666" width="8" height="8"/>
	<rect x="220" y="92" fill="#666666" width="8" height="16"/>
	<rect x="220" y="116" fill="#666666" width="8" height="8"/>
	<rect x="220" y="140" fill="#666666" width="8" height="8"/>
	<rect x="220" y="156" fill="#666666" width="8" height="8"/>
	<rect x="220" y="172" fill="#666666" width="8" height="64"/>
	<rect x="220" y="252" fill="#666666" width="8" height="8"/>
	<rect x="228" y="28" fill="#666666" width="8" height="8"/>
	<rect x="228" y="44" fill="#666666" width="8" height="24"/>
	<rect x="228" y="76" fill="#666666" width="8" height="8"/>
	<rect x="228" y="100" fill="#666666" width="8" height="8"/>
	<rect x="228" y="140" fill="#666666" width="8" height="16"/>
	<rect x="228" y="172" fill="#666666" width="8" height="24"/>
	<rect x="228" y="204" fill="#666666" width="8" height="8"/>
	<rect x="228" y="228" fill="#666666" width="8" height="8"/>
	<rect x="228" y="244" fill="#666666" width="8" height="8"/>
	<rect x="236" y="28" fill="#666666" width="8" height="8"/>
	<rect x="236" y="44" fill="#666666" width="8" height="24"/>
	<rect x="236" y="76" fill="#666666" width="8" height="8"/>
	<rect x="236" y="100" fill="#666666" width="8" height="16"/>
	<rect x="236" y="124" fill="#666666" width="8" height="24"/>
	<rect x="236" y="164" fill="#666666" width="8" height="32"/>
	<rect x="236" y="204" fill="#666666" width="8" height="8"/>
	<rect x="236" y="220" fill="#666666" width="8" height="24"/>
	<rect x="244" y="28" fill="#666666" width="8" height="8"/>
	<rect x="244" y="76" fill="#666666" width="8" height="8"/>
	<rect x="244" y="100" fill="#666666" width="8" height="24"/>
	<rect x="244" y="140" fill="#666666" width="8" height="8"/>
	<rect x="244" y="188" fill="#666666" width="8" height="32"/>
	<rect x="244" y="228" fill="#666666" width="8" height="8"/>
	<rect x="244" y="244" fill="#666666" width="8" height="16"/>
	<rect x="252" y="28" fill="#666666" width="8" height="56"/>
	<rect x="252" y="100" fill="#666666" width="8" height="8"/>
	<rect x="252" y="116" fill="#666666" width="8" height="8"/>
	<rect x="252" y="132" fill="#666666" width="8" height="16"/>
	<rect x="252" y="180" fill="#666666" width="8" height="24"/>
	<rect x="252" y="212" fill="#666666" width="8" height="8"/>
	<rect x="252" y="236" fill="#666666" width="8" height="8"/>
</g>
</svg>
