<?xml version="1.0" encoding="utf-8" standalone="no"?>
<!DOCTYPE svg PUBLIC "-//W3C//DTD SVG 1.1//EN" "http://www.w3.org/Graphics/SVG/1.1/DTD/svg11.dtd">
<svg xmlns="http://www.w3.org/2000/svg" xmlns:xl="http://www.w3.org/1999/xlink" version="1.1" viewBox="191 153 481 74" width="481pt" height="74pt" xmlns:dc="http://purl.org/dc/elements/1.1/"><metadata> Produced by OmniGraffle 6.0.5 <dc:date>2014-06-12 07:52Z</dc:date></metadata><defs><linearGradient x1="0" x2="1" id="Gradient" gradientUnits="userSpaceOnUse"><stop offset="0" stop-color="white"/><stop offset="1" stop-color="#efeef1"/></linearGradient><linearGradient id="Obj_Gradient" xl:href="#Gradient" gradientTransform="translate(431.85377 155) rotate(90) scale(70)"/></defs><g stroke="none" stroke-opacity="1" stroke-dasharray="none" fill="none" fill-opacity="1"><title>timline_elements</title><g><title>Layer 1</title><path d="M 213 155 L 667 155 C 668.65685 155 670 156.34315 670 158 L 670 222 C 670 223.65685 668.65685 225 667 225 L 213 225 C 211.34315 225 210 223.65685 210 222 L 210 191.8541 C 210 190.71779 209.35799 189.679 208.34164 189.17082 L 195.36656 182.68328 C 193.88463 181.94231 193.28395 180.1403 194.02492 178.65836 C 194.31521 178.07778 194.78598 177.60701 195.36656 177.31672 L 208.34164 170.82918 C 209.35799 170.321 210 169.28221 210 168.1459 L 210 158 C 210 156.34315 211.34315 155 213 155 Z" fill="url(#Obj_Gradient)"/><path d="M 213 155 L 667 155 C 668.65685 155 670 156.34315 670 158 L 670 222 C 670 223.65685 668.65685 225 667 225 L 213 225 C 211.34315 225 210 223.65685 210 222 L 210 191.8541 C 210 190.71779 209.35799 189.679 208.34164 189.17082 L 195.36656 182.68328 C 193.88463 181.94231 193.28395 180.1403 194.02492 178.65836 C 194.31521 178.07778 194.78598 177.60701 195.36656 177.31672 L 208.34164 170.82918 C 209.35799 170.321 210 169.28221 210 168.1459 L 210 158 C 210 156.34315 211.34315 155 213 155 Z" stroke="#d2d2d2" stroke-linecap="round" stroke-linejoin="round" stroke-width="1"/></g></g></svg>
