<?xml version="1.0" encoding="utf-8" standalone="no"?>
<!DOCTYPE svg PUBLIC "-//W3C//DTD SVG 1.1//EN" "http://www.w3.org/Graphics/SVG/1.1/DTD/svg11.dtd">
<svg xmlns="http://www.w3.org/2000/svg" xmlns:xl="http://www.w3.org/1999/xlink" version="1.1" viewBox="191 368 481 74" width="481pt" height="74pt" xmlns:dc="http://purl.org/dc/elements/1.1/"><metadata> Produced by OmniGraffle 6.0.5 <dc:date>2014-06-12 07:52Z</dc:date></metadata><defs><linearGradient x1="0" x2="1" id="Gradient" gradientUnits="userSpaceOnUse"><stop offset="0" stop-color="white"/><stop offset="1" stop-color="white"/></linearGradient><linearGradient id="Obj_Gradient" xl:href="#Gradient" gradientTransform="translate(431.85377 370) rotate(90) scale(70)"/></defs><g stroke="none" stroke-opacity="1" stroke-dasharray="none" fill="none" fill-opacity="1"><title>timline_elements</title><g><title>Layer 1</title><path d="M 213 370 L 667 370 C 668.65685 370 670 371.34315 670 373 L 670 437 C 670 438.65685 668.65685 440 667 440 L 213 440 C 211.34315 440 210 438.65685 210 437 L 210 406.8541 C 210 405.71779 209.35799 404.679 208.34164 404.17082 L 195.36656 397.68328 C 193.88463 396.94231 193.28395 395.1403 194.02492 393.65836 C 194.31521 393.07778 194.78598 392.607 195.36656 392.31672 L 208.34164 385.82918 C 209.35799 385.321 210 384.28221 210 383.1459 L 210 373 C 210 371.34315 211.34315 370 213 370 Z" fill="url(#Obj_Gradient)"/><path d="M 213 370 L 667 370 C 668.65685 370 670 371.34315 670 373 L 670 437 C 670 438.65685 668.65685 440 667 440 L 213 440 C 211.34315 440 210 438.65685 210 437 L 210 406.8541 C 210 405.71779 209.35799 404.679 208.34164 404.17082 L 195.36656 397.68328 C 193.88463 396.94231 193.28395 395.1403 194.02492 393.65836 C 194.31521 393.07778 194.78598 392.607 195.36656 392.31672 L 208.34164 385.82918 C 209.35799 385.321 210 384.28221 210 383.1459 L 210 373 C 210 371.34315 211.34315 370 213 370 Z" stroke="#d2d2d2" stroke-linecap="round" stroke-linejoin="round" stroke-width="1" stroke-dasharray="2,2"/></g></g></svg>
