<?xml version="1.0" encoding="utf-8" standalone="no"?>
<!DOCTYPE svg PUBLIC "-//W3C//DTD SVG 1.1//EN" "http://www.w3.org/Graphics/SVG/1.1/DTD/svg11.dtd">
<svg xmlns="http://www.w3.org/2000/svg" xmlns:xl="http://www.w3.org/1999/xlink" version="1.1" viewBox="191 293 481 74" width="481pt" height="74pt" xmlns:dc="http://purl.org/dc/elements/1.1/"><metadata> Produced by OmniGraffle 6.0.5 <dc:date>2014-06-12 07:52Z</dc:date></metadata><defs/><g stroke="none" stroke-opacity="1" stroke-dasharray="none" fill="none" fill-opacity="1"><title>timline_elements</title><g><title>Layer 1</title><path d="M 213 295 L 667 295 C 668.65685 295 670 296.34315 670 298 L 670 362 C 670 363.65685 668.65685 365 667 365 L 213 365 C 211.34315 365 210 363.65685 210 362 L 210 331.8541 C 210 330.71779 209.35799 329.679 208.34164 329.17082 L 195.36656 322.68328 C 193.88463 321.94231 193.28395 320.1403 194.02492 318.65836 C 194.31521 318.07778 194.78598 317.60701 195.36656 317.31672 L 208.34164 310.82918 C 209.35799 310.321 210 309.28221 210 308.1459 L 210 298 C 210 296.34315 211.34315 295 213 295 Z" fill="#efeef1"/><path d="M 213 295 L 667 295 C 668.65685 295 670 296.34315 670 298 L 670 362 C 670 363.65685 668.65685 365 667 365 L 213 365 C 211.34315 365 210 363.65685 210 362 L 210 331.8541 C 210 330.71779 209.35799 329.679 208.34164 329.17082 L 195.36656 322.68328 C 193.88463 321.94231 193.28395 320.1403 194.02492 318.65836 C 194.31521 318.07778 194.78598 317.60701 195.36656 317.31672 L 208.34164 310.82918 C 209.35799 310.321 210 309.28221 210 308.1459 L 210 298 C 210 296.34315 211.34315 295 213 295 Z" stroke="#d2d2d2" stroke-linecap="round" stroke-linejoin="round" stroke-width="1" stroke-dasharray="2,2"/></g></g></svg>
