<?xml version="1.0" encoding="utf-8" standalone="no"?>
<!DOCTYPE svg PUBLIC "-//W3C//DTD SVG 1.1//EN" "http://www.w3.org/Graphics/SVG/1.1/DTD/svg11.dtd">
<svg xmlns="http://www.w3.org/2000/svg" xmlns:xl="http://www.w3.org/1999/xlink" version="1.1" viewBox="191 78 481 74" width="481pt" height="74pt" xmlns:dc="http://purl.org/dc/elements/1.1/"><metadata> Produced by OmniGraffle 6.0.5 <dc:date>2014-06-12 07:52Z</dc:date></metadata><defs/><g stroke="none" stroke-opacity="1" stroke-dasharray="none" fill="none" fill-opacity="1"><title>timline_elements</title><g><title>Layer 1</title><path d="M 213 80 L 667 80 C 668.65685 80 670 81.343146 670 83 L 670 147 C 670 148.65685 668.65685 150 667 150 L 213 150 C 211.34315 150 210 148.65685 210 147 L 210 116.8541 C 210 115.717786 209.35799 114.678996 208.34164 114.17082 L 195.36656 107.68328 C 193.88463 106.942314 193.28395 105.140295 194.02492 103.65836 C 194.31521 103.07778 194.78598 102.60701 195.36656 102.31672 L 208.34164 95.82918 C 209.35799 95.321004 210 94.282214 210 93.1459 L 210 83 C 210 81.343146 211.34315 80 213 80 Z" fill="#efeef1"/><path d="M 213 80 L 667 80 C 668.65685 80 670 81.343146 670 83 L 670 147 C 670 148.65685 668.65685 150 667 150 L 213 150 C 211.34315 150 210 148.65685 210 147 L 210 116.8541 C 210 115.717786 209.35799 114.678996 208.34164 114.17082 L 195.36656 107.68328 C 193.88463 106.942314 193.28395 105.140295 194.02492 103.65836 C 194.31521 103.07778 194.78598 102.60701 195.36656 102.31672 L 208.34164 95.82918 C 209.35799 95.321004 210 94.282214 210 93.1459 L 210 83 C 210 81.343146 211.34315 80 213 80 Z" stroke="#d2d2d2" stroke-linecap="round" stroke-linejoin="round" stroke-width="1"/></g></g></svg>
